<svg width="67" height="67" viewBox="0 0 67 67" fill="none" xmlns="http://www.w3.org/2000/svg">
<path d="M2.45427 37.8065C2.51384 38.1962 2.64998 38.5702 2.85485 38.9069C3.05971 39.2437 3.32924 39.5366 3.64788 39.7687L8.99721 43.6795L8.29042 50.2464C8.20517 51.0385 8.43807 51.8319 8.93786 52.4522C9.43766 53.0725 10.1634 53.4689 10.9555 53.5542L17.5227 54.261L20.2059 60.3197C20.4217 60.8002 20.7588 61.2161 21.1841 61.5267C21.6094 61.8374 22.1082 62.0319 22.6315 62.0913C23.1511 62.1472 23.6826 62.0654 24.1711 61.8492L30.2238 59.1685L35.5731 63.0794C36.2163 63.5486 37.0194 63.7436 37.8062 63.6216C38.5929 63.4995 39.2992 63.0705 39.77 62.4284L43.678 57.0791L50.2452 57.7859C51.0373 57.8712 51.8308 57.6383 52.4511 57.1385C53.0715 56.6388 53.4679 55.913 53.5531 55.121L54.2599 48.5541L60.3189 45.8711C60.6798 45.7114 61.0057 45.482 61.2779 45.1962C61.5501 44.9105 61.7633 44.5738 61.9054 44.2056C62.0474 43.8374 62.1155 43.4447 62.1057 43.0502C62.0959 42.6556 62.0085 42.2669 61.8483 41.9061L59.1678 35.8507L63.0782 30.5077C63.5482 29.8648 63.7437 29.0615 63.6216 28.2746C63.4995 27.4876 63.0699 26.7813 62.4271 26.311L57.0778 22.4002L57.7849 15.8303C57.8702 15.0383 57.6373 14.2448 57.1375 13.6245C56.6377 13.0042 55.9119 12.6078 55.1199 12.5225L48.5526 11.8157L45.8721 5.76027C45.5479 5.03333 44.9505 4.46329 44.2091 4.17353C43.8414 4.03008 43.4488 3.96104 43.0542 3.97043C42.6596 3.97981 42.2707 4.06743 41.9102 4.2282L35.8486 6.90786L30.5022 2.99735C29.8593 2.52732 29.056 2.33185 28.269 2.45391C27.482 2.57598 26.7757 3.00559 26.3054 3.64828L22.3944 8.9973L15.8272 8.29047C15.0351 8.20523 14.2416 8.4381 13.6213 8.93786C13.0009 9.43763 12.6045 10.1633 12.5193 10.9554L11.8125 17.5223L5.75347 20.2053C5.0254 20.5297 4.4556 21.1295 4.16888 21.8732C3.88216 22.617 3.90187 23.444 4.22371 24.1732L6.90752 30.226L2.99719 35.569C2.52891 36.2144 2.33385 37.0183 2.45427 37.8065ZM32.7148 36.0245C22.3218 34.9059 21.3728 29.1275 21.7331 25.7798C22.1468 21.9364 25.6364 18.3969 31.6295 18.039L31.9743 14.8347L37.9473 15.4775L37.5908 18.7893C42.6376 20.5711 44.1628 25.0944 43.833 28.1584L40.8466 27.837L37.8543 27.5693C37.9346 26.43 37.5394 24.4601 34.0004 24.0792C30.121 23.6617 27.862 24.9743 27.7061 26.4227C27.5859 27.5396 27.3846 29.409 33.3576 30.0519C43.7505 31.1704 44.6996 36.9489 44.3393 40.2966C43.9256 44.14 40.436 47.6795 34.4429 48.0374L34.0942 51.2776L28.1212 50.6347L28.4684 47.4095C21.6009 45.5617 20.1527 40.4636 20.4475 37.7251L26.4204 38.368C26.4073 38.7986 26.5738 41.4054 32.0719 41.9972C36.1933 42.4407 38.2329 40.893 38.3663 39.6537C38.4708 38.6831 38.6877 36.6674 32.7148 36.0245Z" fill="black"/>
<circle cx="33.0381" cy="33.038" r="24.3636" transform="rotate(6.14303 33.0381 33.038)" fill="#A9E5BB" stroke="white" stroke-width="0.363636"/>
<circle cx="33.038" cy="33.0381" r="23.6364" transform="rotate(6.14303 33.038 33.0381)" stroke="black" stroke-width="0.363636" stroke-dasharray="1.09 1.09"/>
<circle cx="33.0381" cy="33.0379" r="14.1818" transform="rotate(6.14303 33.0381 33.0379)" fill="white" stroke="black" stroke-width="0.363636"/>
<circle cx="33.038" cy="33.0381" r="12.5455" transform="rotate(6.14303 33.038 33.0381)" fill="black"/>
<path d="M16.3899 20.8814L17.2269 19.9516L19.3612 20.7152L19.3903 20.6829L18.4074 18.6403L19.2445 17.7105L21.9962 20.1877L21.3382 20.9186L19.7473 19.4865L19.728 19.508L20.7458 21.5334L20.349 21.9741L18.2174 21.1644L18.198 21.1859L19.7996 22.6277L19.1416 23.3586L16.3899 20.8814ZM24.3457 16.3888C24.57 16.7346 24.692 17.0699 24.7116 17.3948C24.7306 17.7186 24.6656 18.0158 24.5164 18.2864C24.3666 18.556 24.1511 18.7819 23.87 18.9643C23.5869 19.1479 23.2914 19.2527 22.9836 19.2786C22.676 19.3028 22.3783 19.2402 22.0903 19.0908C21.8027 18.9398 21.5474 18.6924 21.3244 18.3486C21.1001 18.0028 20.9779 17.6683 20.9579 17.3451C20.9383 17.0203 21.0028 16.7234 21.1516 16.4545C21.3008 16.1839 21.5169 15.9568 21.8 15.7731C22.0811 15.5908 22.3756 15.4867 22.6835 15.4608C22.9907 15.4339 23.2886 15.4956 23.5772 15.646C23.8652 15.7954 24.1213 16.043 24.3457 16.3888ZM23.4781 16.9515C23.3574 16.7655 23.231 16.6248 23.0988 16.5296C22.967 16.4326 22.8317 16.3825 22.693 16.3791C22.5547 16.374 22.4157 16.4167 22.2762 16.5072C22.1367 16.5977 22.0405 16.7075 21.9877 16.8366C21.9353 16.9639 21.926 17.1079 21.9598 17.2684C21.9939 17.4273 22.0713 17.5998 22.192 17.7858C22.3126 17.9719 22.4389 18.1134 22.5707 18.2103C22.7029 18.3056 22.8382 18.3557 22.9765 18.3608C23.1152 18.3642 23.2543 18.3207 23.3939 18.2302C23.5334 18.1397 23.6294 18.0307 23.6818 17.9033C23.7346 17.7743 23.7439 17.6303 23.7098 17.4714C23.676 17.3109 23.5988 17.1376 23.4781 16.9515ZM27.5204 13.177L28.7723 16.6614L27.9828 16.9451L26.0661 15.5667L26.0457 15.574L26.7034 17.4047L25.7574 17.7446L24.5056 14.2602L25.3086 13.9717L27.2025 15.3505L27.2297 15.3408L26.5744 13.5169L27.5204 13.177ZM29.2223 16.5516L28.709 12.8848L31.3516 12.5149L31.4639 13.317L29.8167 13.5476L29.905 14.1778L31.4161 13.9663L31.5284 14.7684L30.0173 14.9799L30.1055 15.6101L31.7455 15.3805L31.8578 16.1826L29.2223 16.5516ZM32.4589 12.4591L33.577 12.5371L34.1938 14.0878L34.2227 14.0898L35.0486 12.6396L36.1668 12.7175L34.6341 15.1551L34.5532 16.3165L33.5577 16.2472L33.6386 15.0857L32.4589 12.4591ZM38.175 16.9935L39.6529 13.5988L41.1248 14.2396C41.3834 14.3521 41.5854 14.4815 41.7308 14.6276C41.8773 14.7742 41.9676 14.9305 42.0018 15.0966C42.0371 15.2631 42.0173 15.4325 41.9422 15.6049C41.8878 15.7298 41.8107 15.8316 41.7107 15.9103C41.6118 15.9895 41.498 16.0425 41.3694 16.0693C41.2412 16.095 41.1056 16.0925 40.9625 16.0618L40.9481 16.0949C41.0915 16.164 41.208 16.2587 41.2976 16.3792C41.3876 16.4985 41.4419 16.6333 41.4607 16.7834C41.48 16.9325 41.4547 17.0871 41.385 17.2473C41.3041 17.433 41.1836 17.577 41.0233 17.6794C40.8642 17.7823 40.6776 17.8365 40.4636 17.8419C40.2496 17.8474 40.0194 17.7964 39.773 17.6892L38.175 16.9935ZM39.4171 16.6588L39.848 16.8464C40.0027 16.9137 40.1313 16.9355 40.2336 16.9117C40.3365 16.8868 40.4127 16.8175 40.4622 16.7037C40.4969 16.6241 40.508 16.5488 40.4956 16.4776C40.4832 16.4065 40.4495 16.3419 40.3946 16.2838C40.3408 16.2262 40.267 16.177 40.173 16.1361L39.7288 15.9427L39.4171 16.6588ZM39.977 15.3725L40.355 15.537C40.4356 15.5721 40.5124 15.5905 40.5854 15.592C40.6583 15.5935 40.7223 15.578 40.7772 15.5454C40.8337 15.5121 40.8772 15.4607 40.9075 15.3911C40.9532 15.2861 40.9505 15.1896 40.8994 15.1017C40.8488 15.0126 40.766 14.943 40.6511 14.893L40.2599 14.7227L39.977 15.3725ZM42.0376 18.9632L41.1627 18.3219L44.3372 16.0582L45.4453 16.8704L44.2422 20.5791L43.3674 19.9379L44.3001 17.2952L44.2768 17.2781L42.0376 18.9632ZM42.7378 17.6653L44.3826 18.8709L43.938 19.4774L42.2932 18.2719L42.7378 17.6653ZM48.3563 21.8225L47.6896 21.0511C47.7486 20.9905 47.7939 20.9259 47.8254 20.8572C47.8577 20.7895 47.8748 20.719 47.8767 20.6456C47.8803 20.5724 47.8673 20.4984 47.8377 20.4236C47.809 20.348 47.7632 20.2738 47.7001 20.2008C47.5898 20.0732 47.4654 19.9919 47.3269 19.9571C47.1893 19.9231 47.0428 19.9334 46.8876 19.9879C46.7332 20.0434 46.5748 20.1412 46.4125 20.2815C46.2411 20.4297 46.1172 20.5766 46.0408 20.7223C45.9661 20.8681 45.9374 21.01 45.9547 21.148C45.973 21.2852 46.0353 21.4153 46.1417 21.5384C46.2024 21.6086 46.2654 21.664 46.3308 21.7047C46.3971 21.7445 46.4649 21.7704 46.5341 21.7823C46.6033 21.7941 46.6726 21.7924 46.7421 21.7769C46.8133 21.7616 46.8829 21.7324 46.951 21.6895L47.6123 22.4657C47.4859 22.559 47.3363 22.6302 47.1636 22.6791C46.9917 22.7273 46.8081 22.7434 46.6128 22.7275C46.4191 22.7117 46.2238 22.6535 46.0269 22.5529C45.83 22.4522 45.6429 22.2994 45.4655 22.0942C45.2433 21.8371 45.099 21.5587 45.0328 21.2591C44.9674 20.9604 44.9906 20.6592 45.1024 20.3554C45.215 20.0526 45.4263 19.7672 45.7363 19.4992C46.0481 19.2296 46.3627 19.0628 46.6801 18.9987C46.9984 18.9339 47.3006 18.9563 47.5866 19.0659C47.8734 19.1748 48.1256 19.3551 48.3432 19.6067C48.4961 19.7836 48.6126 19.9673 48.6927 20.1577C48.7729 20.3481 48.8149 20.5395 48.8189 20.7321C48.8237 20.9238 48.7882 21.1122 48.7124 21.2973C48.6366 21.4823 48.5179 21.6574 48.3563 21.8225ZM46.8524 23.7037L50.1286 21.9791L50.5968 22.8685L49.2723 23.5658L49.2958 23.6106L51.1392 23.8988L51.6849 24.9354L49.6431 24.5964L48.4221 26.6856L47.8629 25.6234L48.7041 24.2408L48.1652 24.1485L47.3206 24.5932L46.8524 23.7037Z" fill="black"/>
<path d="M19.0548 44.111C19.0965 44.0601 19.1265 44.0067 19.1449 43.9508C19.1642 43.8942 19.1721 43.8355 19.1688 43.7747C19.1671 43.7142 19.1531 43.6524 19.1268 43.5893C19.1023 43.5263 19.0665 43.4635 19.0195 43.4009C18.9183 43.2659 18.7996 43.1748 18.6634 43.1278C18.5279 43.0818 18.3806 43.0792 18.2215 43.1202C18.0632 43.1621 17.8982 43.2474 17.7265 43.3761C17.5529 43.5062 17.4222 43.6412 17.3342 43.781C17.2461 43.9208 17.2044 44.062 17.209 44.2047C17.2135 44.3474 17.2679 44.4882 17.372 44.6271C17.4638 44.7495 17.5579 44.8379 17.6543 44.8921C17.7515 44.9473 17.848 44.9706 17.9439 44.962C18.0399 44.9533 18.1322 44.9157 18.2209 44.8492L18.3106 44.9989L17.803 44.322L18.3758 43.8925L19.3605 45.2059L18.9498 45.5139C18.6797 45.7163 18.4058 45.8321 18.1279 45.8612C17.8516 45.8906 17.5872 45.8433 17.3346 45.7194C17.0837 45.5957 16.8613 45.4046 16.6676 45.1462C16.4514 44.8578 16.3228 44.5588 16.2819 44.2491C16.241 43.9393 16.2879 43.6382 16.4227 43.3459C16.5582 43.0545 16.7822 42.7916 17.0946 42.5574C17.3395 42.3737 17.5843 42.2482 17.829 42.1807C18.0744 42.1143 18.3121 42.0987 18.542 42.1342C18.773 42.169 18.9871 42.2486 19.1845 42.3733C19.3829 42.4972 19.5569 42.659 19.7066 42.8586C19.8381 43.0341 19.9353 43.2159 19.9979 43.4039C20.0622 43.5922 20.092 43.7785 20.0871 43.9629C20.084 44.1475 20.0469 44.3222 19.976 44.4868C19.9051 44.6514 19.8012 44.7971 19.6643 44.9239L19.0548 44.111ZM22.6629 45.9612L23.4336 46.6065L21.9108 48.4251C21.7298 48.6413 21.5214 48.7851 21.2856 48.8564C21.0514 48.9276 20.8065 48.9292 20.5506 48.8612C20.2955 48.7922 20.0465 48.656 19.8035 48.4525C19.5586 48.2475 19.3798 48.0255 19.2671 47.7865C19.1551 47.5466 19.1137 47.3051 19.1426 47.0621C19.1733 46.819 19.2791 46.5893 19.4602 46.3731L20.9829 44.5545L21.7536 45.1998L20.2866 46.9519C20.2131 47.0396 20.1667 47.1344 20.1475 47.2362C20.1291 47.3371 20.1378 47.4356 20.1737 47.5317C20.2105 47.6285 20.2728 47.7137 20.3606 47.7872C20.4493 47.8615 20.5441 47.9078 20.6449 47.9263C20.7458 47.9447 20.8443 47.936 20.9404 47.9001C21.0372 47.8633 21.1224 47.801 21.1959 47.7132L22.6629 45.9612ZM23.0251 50.6025L22.0553 50.1166L24.8065 47.3539L26.0349 47.9694L25.4689 51.827L24.4991 51.3411L24.9769 48.5797L24.951 48.5667L23.0251 50.6025ZM23.4984 49.2058L25.3216 50.1194L24.9847 50.7917L23.1615 49.8782L23.4984 49.2058ZM26.5661 52.2161L27.4542 48.6217L29.0057 49.0051C29.2725 49.071 29.4939 49.1772 29.67 49.3238C29.8461 49.4703 29.9672 49.6486 30.0332 49.8586C30.0993 50.0686 30.1008 50.3011 30.0378 50.5562C29.9742 50.8136 29.8632 51.0164 29.7049 51.1648C29.5477 51.3134 29.3551 51.4074 29.1269 51.4466C28.8999 51.4861 28.6494 51.472 28.3757 51.4043L27.449 51.1754L27.6363 50.4172L28.3664 50.5976C28.4811 50.6259 28.5823 50.636 28.6699 50.6279C28.7591 50.6189 28.8331 50.5881 28.892 50.5356C28.9521 50.4834 28.9947 50.4064 29.0198 50.3046C29.0453 50.2017 29.0437 50.1125 29.0151 50.0372C28.988 49.961 28.9373 49.8975 28.8629 49.8469C28.79 49.7953 28.6962 49.7554 28.5815 49.7271L28.2375 49.6421L27.5419 52.4572L26.5661 52.2161ZM29.0798 51.0867L29.5708 52.9585L28.5107 52.6966L28.0408 50.83L29.0798 51.0867ZM31.6343 53.1063L30.5498 53.0823L31.8533 49.4077L33.227 49.438L34.3671 53.1666L33.2826 53.1426L32.5321 50.4426L32.5032 50.4419L31.6343 53.1063ZM31.4641 51.6414L33.5028 51.6864L33.4862 52.4383L31.4475 52.3933L31.4641 51.6414ZM37.9235 48.7636L38.6804 52.3879L37.8593 52.5594L36.152 50.9287L36.1308 50.9331L36.5285 52.8373L35.5446 53.0428L34.7876 49.4185L35.6229 49.2441L37.3074 50.8721L37.3357 50.8662L36.9395 48.9691L37.9235 48.7636ZM38.6093 49.3961L38.2722 48.6597L41.1983 47.3205L41.5354 48.0569L40.5228 48.5204L41.7265 51.1506L40.8257 51.5629L39.6219 48.9327L38.6093 49.3961ZM43.6783 50.1287L41.5129 47.1255L43.6773 45.5649L44.151 46.2218L42.8019 47.1946L43.1741 47.7108L44.4117 46.8184L44.8854 47.4753L43.6478 48.3677L44.0199 48.8839L45.3632 47.9154L45.8369 48.5723L43.6783 50.1287ZM46.7369 47.7874L44.0473 45.243L45.8811 43.3046L46.4694 43.8612L45.3264 45.0694L45.7887 45.5067L46.8373 44.3983L47.4256 44.9549L46.3771 46.0633L46.8393 46.5006L47.9774 45.2977L48.5657 45.8543L46.7369 47.7874Z" fill="black"/>
<circle cx="52.0388" cy="34.9001" r="2.18182" transform="rotate(6.14303 52.0388 34.9001)" fill="black"/>
<circle cx="14.0762" cy="30.8141" r="2.18182" transform="rotate(6.14303 14.0762 30.8141)" fill="black"/>
<path d="M28.9355 33.0715C28.53 33.0253 28.1458 32.9151 27.7827 32.741C27.4221 32.5671 27.1091 32.3139 26.8436 31.9814C26.578 31.6489 26.3846 31.2255 26.2634 30.7111C26.1447 30.197 26.1241 29.5792 26.2018 28.8576C26.2757 28.1954 26.4151 27.6117 26.6202 27.1064C26.828 26.5989 27.0915 26.1779 27.4107 25.8434C27.7324 25.5091 28.0999 25.2682 28.5132 25.1204C28.9268 24.9701 29.3776 24.9212 29.8655 24.9737C30.3919 25.0304 30.8456 25.1831 31.2266 25.4319C31.6079 25.6782 31.9018 25.9891 32.1081 26.3645C32.317 26.7403 32.4238 27.1479 32.4285 27.5874L30.7838 27.4104C30.7492 27.1287 30.6376 26.8985 30.449 26.7198C30.2604 26.541 30.0147 26.4353 29.7117 26.4027C29.1981 26.3475 28.7837 26.5288 28.4686 26.9469C28.156 27.3652 27.9559 27.958 27.8681 28.7252L27.922 28.731C28.0653 28.5101 28.2459 28.3282 28.4639 28.1854C28.6847 28.0404 28.9282 27.938 29.1944 27.8783C29.4634 27.8164 29.7417 27.8008 30.0293 27.8318C30.4966 27.8821 30.9008 28.0373 31.2416 28.2974C31.5828 28.5549 31.838 28.8863 32.0074 29.2915C32.1768 29.6968 32.2349 30.1459 32.1819 30.639C32.1244 31.1731 31.9487 31.6347 31.6549 32.0239C31.3636 32.4133 30.9831 32.7023 30.5135 32.8907C30.0466 33.0768 29.5206 33.1371 28.9355 33.0715ZM29.0687 31.7611C29.3255 31.7888 29.5619 31.7519 29.7781 31.6504C29.9942 31.549 30.1714 31.3993 30.3096 31.2011C30.4478 31.003 30.531 30.773 30.5592 30.5111C30.5874 30.2492 30.5549 30.008 30.4617 29.7875C30.3711 29.5674 30.2323 29.3849 30.0453 29.2401C29.8583 29.0953 29.6363 29.0091 29.3796 28.9814C29.187 28.9607 29.0046 28.9774 28.8326 29.0317C28.6631 29.0861 28.5098 29.1709 28.3727 29.2861C28.2382 29.4015 28.1272 29.5402 28.0396 29.7022C27.9523 29.8616 27.8984 30.0364 27.878 30.2264C27.8506 30.4806 27.8834 30.7192 27.9763 30.9422C28.0717 31.1655 28.2128 31.3508 28.3996 31.4982C28.5889 31.6458 28.8119 31.7335 29.0687 31.7611ZM36.1542 33.9147C35.492 33.8409 34.9395 33.6164 34.4967 33.2415C34.0565 32.8668 33.741 32.3588 33.5503 31.7175C33.3621 31.0764 33.3158 30.3246 33.4112 29.4621C33.5038 28.6019 33.7098 27.8825 34.0292 27.3038C34.3512 26.7254 34.7668 26.3039 35.2758 26.0392C35.7877 25.7722 36.3736 25.6742 37.0335 25.7452C37.6934 25.8163 38.2438 26.0365 38.6846 26.4061C39.1279 26.7759 39.4454 27.2776 39.6369 27.9113C39.8288 28.5423 39.8771 29.2878 39.7819 30.1478C39.6888 31.0131 39.4808 31.7388 39.158 32.3249C38.8377 32.9113 38.4227 33.3406 37.9128 33.6131C37.4029 33.8855 36.8167 33.986 36.1542 33.9147ZM36.3031 32.532C36.755 32.5806 37.1402 32.3922 37.4588 31.9667C37.7773 31.5412 37.9842 30.8738 38.0795 29.9645C38.1439 29.3662 38.1359 28.8615 38.0555 28.4502C37.9776 28.0392 37.8378 27.7215 37.6359 27.4972C37.4366 27.2731 37.1868 27.1449 36.8863 27.1126C36.437 27.0642 36.0533 27.2502 35.7353 27.6706C35.4173 28.0909 35.2088 28.749 35.1098 29.6449C35.0446 30.2509 35.0505 30.7633 35.1275 31.182C35.2074 31.5984 35.3481 31.9201 35.5497 32.147C35.7515 32.3713 36.0026 32.4996 36.3031 32.532ZM27.2277 38.8133L25.9227 38.6728L26.3189 34.9916L27.6347 35.1332C28.0049 35.1731 28.3158 35.2811 28.5671 35.4572C28.8186 35.6322 29.0015 35.8646 29.1158 36.1545C29.2312 36.4445 29.2684 36.7807 29.2272 37.1629C29.186 37.5464 29.078 37.8681 28.9033 38.1281C28.7299 38.3883 28.5004 38.5775 28.2149 38.6959C27.9306 38.8144 27.6015 38.8535 27.2277 38.8133ZM26.7728 38.0897L27.2671 38.1429C27.4972 38.1677 27.6951 38.1478 27.8608 38.0832C28.0279 38.0175 28.1603 37.9027 28.2579 37.7386C28.3569 37.5735 28.4212 37.3538 28.4507 37.0794C28.48 36.8073 28.4638 36.5807 28.4021 36.3995C28.3415 36.2185 28.2372 36.0787 28.089 35.9804C27.9408 35.882 27.7516 35.8204 27.5215 35.7956L27.0254 35.7422L26.7728 38.0897ZM30.0322 39.1151L29.1982 39.0254L30.8652 35.4809L31.8682 35.5889L32.741 39.4067L31.9069 39.3169L31.2905 36.3777L31.2617 36.3746L30.0322 39.1151ZM30.1358 37.6626L32.1058 37.8746L32.0404 38.4821L30.0704 38.2701L30.1358 37.6626ZM32.9889 35.7095L33.8607 35.8033L34.5294 37.479L34.5654 37.4829L35.5754 35.9879L36.4472 36.0817L34.8484 38.3171L34.7083 39.6184L33.9354 39.5352L34.0754 38.2339L32.9889 35.7095ZM38.7554 37.4011C38.7566 37.2546 38.707 37.1353 38.6066 37.0433C38.5062 36.9512 38.3625 36.8952 38.1756 36.875C38.0486 36.8614 37.9394 36.8678 37.848 36.8943C37.7568 36.9197 37.6845 36.961 37.631 37.0183C37.5788 37.0757 37.5484 37.1439 37.5399 37.223C37.5304 37.2887 37.538 37.3477 37.5627 37.4C37.5885 37.4525 37.6265 37.4996 37.6766 37.5414C37.7267 37.5819 37.7858 37.6192 37.8536 37.6532C37.9216 37.6859 37.9948 37.7156 38.0731 37.7423L38.3954 37.8569C38.5521 37.9102 38.6943 37.974 38.8221 38.0483C38.9498 38.1227 39.0581 38.2089 39.147 38.307C39.2358 38.405 39.3008 38.5162 39.342 38.6407C39.3843 38.7653 39.3979 38.9043 39.3826 39.0578C39.3571 39.283 39.2786 39.4721 39.1469 39.6252C39.0166 39.7773 38.8399 39.8873 38.6168 39.9554C38.395 40.0225 38.1344 40.0399 37.8348 40.0076C37.5376 39.9757 37.2837 39.9023 37.073 39.7875C36.8635 39.6728 36.7066 39.5195 36.6024 39.3277C36.4995 39.1348 36.4594 38.9056 36.4819 38.6401L37.235 38.7212C37.2301 38.8455 37.2544 38.9524 37.3078 39.0418C37.3625 39.1301 37.4404 39.2009 37.5413 39.2542C37.6436 39.3064 37.7618 39.3398 37.896 39.3542C38.0278 39.3684 38.1443 39.3615 38.2455 39.3336C38.3479 39.3059 38.4297 39.2607 38.491 39.1982C38.5523 39.1357 38.5877 39.0601 38.5973 38.9715C38.6061 38.8888 38.5891 38.8166 38.546 38.755C38.5041 38.6935 38.4386 38.638 38.3494 38.5884C38.2614 38.5389 38.152 38.4908 38.0213 38.444L37.6313 38.3002C37.329 38.1913 37.0967 38.0469 36.9342 37.867C36.7717 37.687 36.7057 37.4611 36.7362 37.1892C36.759 36.9662 36.8393 36.7779 36.977 36.6242C37.116 36.4707 37.296 36.3585 37.5169 36.2878C37.7379 36.217 37.9826 36.1961 38.251 36.2249C38.5242 36.2543 38.7576 36.3267 38.9513 36.4421C39.1462 36.5577 39.2915 36.7048 39.3874 36.8837C39.4834 37.0625 39.5213 37.2617 39.5013 37.4814L38.7554 37.4011Z" fill="white"/>
</svg>
