<svg width="31" height="22" viewBox="0 0 31 22" fill="none" xmlns="http://www.w3.org/2000/svg">
<path d="M2.53161 6.1988H2.63108V7.43963H15.3587C15.2642 7.16252 15.2494 6.86443 15.3161 6.57932C15.3827 6.29422 15.5281 6.03357 15.7357 5.82708L17.4268 4.14122C17.59 3.97626 17.788 3.84977 18.0062 3.77098C18.2245 3.69218 18.4576 3.66306 18.6886 3.68573V2.54961C18.6882 2.13314 18.5227 1.73383 18.2282 1.43934C17.9337 1.14485 17.5344 0.979267 17.1179 0.978943H2.53161C2.11541 0.980157 1.71661 1.14603 1.42232 1.44032C1.12802 1.73462 0.962152 2.13342 0.960938 2.54961V4.62813C0.962152 5.04433 1.12802 5.44313 1.42232 5.73742C1.71661 6.03172 2.11541 6.19759 2.53161 6.1988ZM7.7567 3.0627C7.89374 3.06544 8.02425 3.12181 8.12019 3.2197C8.21614 3.31759 8.26988 3.4492 8.26988 3.58627C8.26987 3.72334 8.21613 3.85495 8.12017 3.95283C8.02422 4.05071 7.89371 4.10707 7.75667 4.10981C7.61963 4.10707 7.48913 4.0507 7.39318 3.95281C7.29723 3.85492 7.24349 3.72331 7.2435 3.58624C7.2435 3.44917 7.29725 3.31757 7.3932 3.21968C7.48915 3.1218 7.61966 3.06543 7.7567 3.0627ZM5.66248 3.0627C5.79952 3.06544 5.93002 3.12181 6.02597 3.2197C6.12191 3.31759 6.17565 3.4492 6.17565 3.58627C6.17565 3.72334 6.1219 3.85495 6.02595 3.95283C5.92999 4.05071 5.79949 4.10707 5.66245 4.10981C5.5254 4.10707 5.3949 4.0507 5.29895 3.95281C5.20301 3.85492 5.14927 3.72331 5.14927 3.58624C5.14927 3.44917 5.20302 3.31757 5.29897 3.21968C5.39493 3.1218 5.52543 3.06543 5.66248 3.0627ZM3.56825 3.0627C3.70529 3.06544 3.8358 3.12181 3.93174 3.2197C4.02769 3.31759 4.08143 3.4492 4.08142 3.58627C4.08142 3.72334 4.02767 3.85495 3.93172 3.95283C3.83577 4.05071 3.70526 4.10707 3.56822 4.10981C3.43118 4.10707 3.30067 4.0507 3.20473 3.95281C3.10878 3.85492 3.05504 3.72331 3.05504 3.58624C3.05505 3.44917 3.1088 3.31757 3.20475 3.21968C3.3007 3.1218 3.43121 3.06543 3.56825 3.0627Z" fill="black"/>
<path d="M2.53161 6.1988H2.63108V7.43963H15.3587C15.2642 7.16252 15.2494 6.86443 15.3161 6.57932C15.3827 6.29422 15.5281 6.03357 15.7357 5.82708L17.4268 4.14122C17.59 3.97626 17.788 3.84977 18.0062 3.77098C18.2245 3.69218 18.4576 3.66306 18.6886 3.68573V2.54961C18.6882 2.13314 18.5227 1.73383 18.2282 1.43934C17.9337 1.14485 17.5344 0.979267 17.1179 0.978943H2.53161C2.11541 0.980157 1.71661 1.14603 1.42232 1.44032C1.12802 1.73462 0.962152 2.13342 0.960938 2.54961V4.62813C0.962152 5.04433 1.12802 5.44313 1.42232 5.73742C1.71661 6.03172 2.11541 6.19759 2.53161 6.1988ZM7.7567 3.0627C7.89374 3.06544 8.02425 3.12181 8.12019 3.2197C8.21614 3.31759 8.26988 3.4492 8.26988 3.58627C8.26987 3.72334 8.21613 3.85495 8.12017 3.95283C8.02422 4.05071 7.89371 4.10707 7.75667 4.10981C7.61963 4.10707 7.48913 4.0507 7.39318 3.95281C7.29723 3.85492 7.24349 3.72331 7.2435 3.58624C7.2435 3.44917 7.29725 3.31757 7.3932 3.21968C7.48915 3.1218 7.61966 3.06543 7.7567 3.0627ZM5.66248 3.0627C5.79952 3.06544 5.93002 3.12181 6.02597 3.2197C6.12191 3.31759 6.17565 3.4492 6.17565 3.58627C6.17565 3.72334 6.1219 3.85495 6.02595 3.95283C5.92999 4.05071 5.79949 4.10707 5.66245 4.10981C5.5254 4.10707 5.3949 4.0507 5.29895 3.95281C5.20301 3.85492 5.14927 3.72331 5.14927 3.58624C5.14927 3.44917 5.20302 3.31757 5.29897 3.21968C5.39493 3.1218 5.52543 3.06543 5.66248 3.0627ZM3.56825 3.0627C3.70529 3.06544 3.8358 3.12181 3.93174 3.2197C4.02769 3.31759 4.08143 3.4492 4.08142 3.58627C4.08142 3.72334 4.02767 3.85495 3.93172 3.95283C3.83577 4.05071 3.70526 4.10707 3.56822 4.10981C3.43118 4.10707 3.30067 4.0507 3.20473 3.95281C3.10878 3.85492 3.05504 3.72331 3.05504 3.58624C3.05505 3.44917 3.1088 3.31757 3.20475 3.21968C3.3007 3.1218 3.43121 3.06543 3.56825 3.0627Z" fill="url(#paint0_linear_54_134)"/>
<path d="M2.53161 6.1988H2.63108V7.43963H15.3587C15.2642 7.16252 15.2494 6.86443 15.3161 6.57932C15.3827 6.29422 15.5281 6.03357 15.7357 5.82708L17.4268 4.14122C17.59 3.97626 17.788 3.84977 18.0062 3.77098C18.2245 3.69218 18.4576 3.66306 18.6886 3.68573V2.54961C18.6882 2.13314 18.5227 1.73383 18.2282 1.43934C17.9337 1.14485 17.5344 0.979267 17.1179 0.978943H2.53161C2.11541 0.980157 1.71661 1.14603 1.42232 1.44032C1.12802 1.73462 0.962152 2.13342 0.960938 2.54961V4.62813C0.962152 5.04433 1.12802 5.44313 1.42232 5.73742C1.71661 6.03172 2.11541 6.19759 2.53161 6.1988ZM7.7567 3.0627C7.89374 3.06544 8.02425 3.12181 8.12019 3.2197C8.21614 3.31759 8.26988 3.4492 8.26988 3.58627C8.26987 3.72334 8.21613 3.85495 8.12017 3.95283C8.02422 4.05071 7.89371 4.10707 7.75667 4.10981C7.61963 4.10707 7.48913 4.0507 7.39318 3.95281C7.29723 3.85492 7.24349 3.72331 7.2435 3.58624C7.2435 3.44917 7.29725 3.31757 7.3932 3.21968C7.48915 3.1218 7.61966 3.06543 7.7567 3.0627ZM5.66248 3.0627C5.79952 3.06544 5.93002 3.12181 6.02597 3.2197C6.12191 3.31759 6.17565 3.4492 6.17565 3.58627C6.17565 3.72334 6.1219 3.85495 6.02595 3.95283C5.92999 4.05071 5.79949 4.10707 5.66245 4.10981C5.5254 4.10707 5.3949 4.0507 5.29895 3.95281C5.20301 3.85492 5.14927 3.72331 5.14927 3.58624C5.14927 3.44917 5.20302 3.31757 5.29897 3.21968C5.39493 3.1218 5.52543 3.06543 5.66248 3.0627ZM3.56825 3.0627C3.70529 3.06544 3.8358 3.12181 3.93174 3.2197C4.02769 3.31759 4.08143 3.4492 4.08142 3.58627C4.08142 3.72334 4.02767 3.85495 3.93172 3.95283C3.83577 4.05071 3.70526 4.10707 3.56822 4.10981C3.43118 4.10707 3.30067 4.0507 3.20473 3.95281C3.10878 3.85492 3.05504 3.72331 3.05504 3.58624C3.05505 3.44917 3.1088 3.31757 3.20475 3.21968C3.3007 3.1218 3.43121 3.06543 3.56825 3.0627Z" fill="#E17351"/>
<path d="M17.4268 18.0469C17.1995 17.7804 15.5688 16.2802 15.4582 15.9893H2.53161C2.11541 15.9905 1.71662 16.1564 1.42232 16.4507C1.12803 16.745 0.962157 17.1438 0.960938 17.56V19.6385C0.962157 20.0547 1.12803 20.4535 1.42232 20.7478C1.71662 21.0421 2.11541 21.208 2.53161 21.2092H17.1179C17.5344 21.2088 17.9337 21.0433 18.2282 20.7488C18.5226 20.4543 18.6882 20.055 18.6886 19.6385V18.5024C18.4576 18.5251 18.2245 18.496 18.0062 18.4172C17.788 18.3384 17.59 18.2119 17.4268 18.0469ZM3.56825 19.1254C3.43121 19.1227 3.3007 19.0663 3.20476 18.9684C3.10881 18.8705 3.05507 18.7389 3.05508 18.6019C3.05508 18.4648 3.10883 18.3332 3.20478 18.2353C3.30073 18.1374 3.43124 18.081 3.56828 18.0783C3.70532 18.0811 3.83583 18.1374 3.93177 18.2353C4.02772 18.3332 4.08146 18.4648 4.08145 18.6019C4.08145 18.739 4.0277 18.8706 3.93175 18.9684C3.8358 19.0663 3.70529 19.1227 3.56825 19.1254ZM5.66248 19.1254C5.52543 19.1227 5.39493 19.0663 5.29898 18.9684C5.20304 18.8705 5.1493 18.7389 5.1493 18.6019C5.14931 18.4648 5.20305 18.3332 5.29901 18.2353C5.39496 18.1374 5.52546 18.081 5.66251 18.0783C5.79955 18.0811 5.93005 18.1374 6.026 18.2353C6.12195 18.3332 6.17569 18.4648 6.17568 18.6019C6.17568 18.739 6.12193 18.8706 6.02598 18.9684C5.93003 19.0663 5.79952 19.1227 5.66248 19.1254ZM7.7567 19.1254C7.61966 19.1227 7.48916 19.0663 7.39321 18.9684C7.29726 18.8705 7.24353 18.7389 7.24353 18.6019C7.24353 18.4648 7.29728 18.3332 7.39323 18.2353C7.48918 18.1374 7.61969 18.081 7.75673 18.0783C7.89378 18.0811 8.02428 18.1374 8.12023 18.2353C8.21617 18.3332 8.26991 18.4648 8.26991 18.6019C8.2699 18.739 8.21616 18.8706 8.1202 18.9684C8.02425 19.0663 7.89375 19.1227 7.7567 19.1254Z" fill="black"/>
<path d="M17.4268 18.0469C17.1995 17.7804 15.5688 16.2802 15.4582 15.9893H2.53161C2.11541 15.9905 1.71662 16.1564 1.42232 16.4507C1.12803 16.745 0.962157 17.1438 0.960938 17.56V19.6385C0.962157 20.0547 1.12803 20.4535 1.42232 20.7478C1.71662 21.0421 2.11541 21.208 2.53161 21.2092H17.1179C17.5344 21.2088 17.9337 21.0433 18.2282 20.7488C18.5226 20.4543 18.6882 20.055 18.6886 19.6385V18.5024C18.4576 18.5251 18.2245 18.496 18.0062 18.4172C17.788 18.3384 17.59 18.2119 17.4268 18.0469ZM3.56825 19.1254C3.43121 19.1227 3.3007 19.0663 3.20476 18.9684C3.10881 18.8705 3.05507 18.7389 3.05508 18.6019C3.05508 18.4648 3.10883 18.3332 3.20478 18.2353C3.30073 18.1374 3.43124 18.081 3.56828 18.0783C3.70532 18.0811 3.83583 18.1374 3.93177 18.2353C4.02772 18.3332 4.08146 18.4648 4.08145 18.6019C4.08145 18.739 4.0277 18.8706 3.93175 18.9684C3.8358 19.0663 3.70529 19.1227 3.56825 19.1254ZM5.66248 19.1254C5.52543 19.1227 5.39493 19.0663 5.29898 18.9684C5.20304 18.8705 5.1493 18.7389 5.1493 18.6019C5.14931 18.4648 5.20305 18.3332 5.29901 18.2353C5.39496 18.1374 5.52546 18.081 5.66251 18.0783C5.79955 18.0811 5.93005 18.1374 6.026 18.2353C6.12195 18.3332 6.17569 18.4648 6.17568 18.6019C6.17568 18.739 6.12193 18.8706 6.02598 18.9684C5.93003 19.0663 5.79952 19.1227 5.66248 19.1254ZM7.7567 19.1254C7.61966 19.1227 7.48916 19.0663 7.39321 18.9684C7.29726 18.8705 7.24353 18.7389 7.24353 18.6019C7.24353 18.4648 7.29728 18.3332 7.39323 18.2353C7.48918 18.1374 7.61969 18.081 7.75673 18.0783C7.89378 18.0811 8.02428 18.1374 8.12023 18.2353C8.21617 18.3332 8.26991 18.4648 8.26991 18.6019C8.2699 18.739 8.21616 18.8706 8.1202 18.9684C8.02425 19.0663 7.89375 19.1227 7.7567 19.1254Z" fill="url(#paint1_linear_54_134)"/>
<path d="M17.4268 18.0469C17.1995 17.7804 15.5688 16.2802 15.4582 15.9893H2.53161C2.11541 15.9905 1.71662 16.1564 1.42232 16.4507C1.12803 16.745 0.962157 17.1438 0.960938 17.56V19.6385C0.962157 20.0547 1.12803 20.4535 1.42232 20.7478C1.71662 21.0421 2.11541 21.208 2.53161 21.2092H17.1179C17.5344 21.2088 17.9337 21.0433 18.2282 20.7488C18.5226 20.4543 18.6882 20.055 18.6886 19.6385V18.5024C18.4576 18.5251 18.2245 18.496 18.0062 18.4172C17.788 18.3384 17.59 18.2119 17.4268 18.0469ZM3.56825 19.1254C3.43121 19.1227 3.3007 19.0663 3.20476 18.9684C3.10881 18.8705 3.05507 18.7389 3.05508 18.6019C3.05508 18.4648 3.10883 18.3332 3.20478 18.2353C3.30073 18.1374 3.43124 18.081 3.56828 18.0783C3.70532 18.0811 3.83583 18.1374 3.93177 18.2353C4.02772 18.3332 4.08146 18.4648 4.08145 18.6019C4.08145 18.739 4.0277 18.8706 3.93175 18.9684C3.8358 19.0663 3.70529 19.1227 3.56825 19.1254ZM5.66248 19.1254C5.52543 19.1227 5.39493 19.0663 5.29898 18.9684C5.20304 18.8705 5.1493 18.7389 5.1493 18.6019C5.14931 18.4648 5.20305 18.3332 5.29901 18.2353C5.39496 18.1374 5.52546 18.081 5.66251 18.0783C5.79955 18.0811 5.93005 18.1374 6.026 18.2353C6.12195 18.3332 6.17569 18.4648 6.17568 18.6019C6.17568 18.739 6.12193 18.8706 6.02598 18.9684C5.93003 19.0663 5.79952 19.1227 5.66248 19.1254ZM7.7567 19.1254C7.61966 19.1227 7.48916 19.0663 7.39321 18.9684C7.29726 18.8705 7.24353 18.7389 7.24353 18.6019C7.24353 18.4648 7.29728 18.3332 7.39323 18.2353C7.48918 18.1374 7.61969 18.081 7.75673 18.0783C7.89378 18.0811 8.02428 18.1374 8.12023 18.2353C8.21617 18.3332 8.26991 18.4648 8.26991 18.6019C8.2699 18.739 8.21616 18.8706 8.1202 18.9684C8.02425 19.0663 7.89375 19.1227 7.7567 19.1254Z" fill="#E17351"/>
<path d="M2.53161 13.7014H2.63108V14.9422H15.3064C15.3597 14.6889 15.4728 14.4519 15.6362 14.2511L15.9242 13.9003L15.4635 13.8532C15.0751 13.8154 14.7149 13.6339 14.4534 13.3444C14.1919 13.0548 14.048 12.678 14.0499 12.2878V9.90036C14.0485 9.60582 14.1303 9.31687 14.2859 9.06678C14.4415 8.8167 14.6646 8.61564 14.9294 8.48676H2.53161C2.11514 8.48709 1.71583 8.65267 1.42134 8.94716C1.12685 9.24164 0.961268 9.64096 0.960938 10.0574V12.1307C0.961262 12.5472 1.12685 12.9465 1.42133 13.241C1.71582 13.5355 2.11514 13.7011 2.53161 13.7014ZM7.7567 10.5705C7.89374 10.5733 8.02425 10.6296 8.12019 10.7275C8.21614 10.8254 8.26988 10.957 8.26988 11.0941C8.26987 11.2312 8.21613 11.3628 8.12017 11.4606C8.02422 11.5585 7.89371 11.6149 7.75667 11.6176C7.61963 11.6149 7.48913 11.5585 7.39318 11.4606C7.29723 11.3627 7.24349 11.2311 7.2435 11.0941C7.2435 10.957 7.29725 10.8254 7.3932 10.7275C7.48915 10.6296 7.61966 10.5732 7.7567 10.5705ZM5.66248 10.5705C5.79952 10.5733 5.93002 10.6296 6.02597 10.7275C6.12191 10.8254 6.17565 10.957 6.17565 11.0941C6.17565 11.2312 6.1219 11.3628 6.02595 11.4606C5.92999 11.5585 5.79949 11.6149 5.66245 11.6176C5.5254 11.6149 5.3949 11.5585 5.29895 11.4606C5.20301 11.3627 5.14927 11.2311 5.14927 11.0941C5.14927 10.957 5.20302 10.8254 5.29897 10.7275C5.39493 10.6296 5.52543 10.5732 5.66248 10.5705ZM3.56825 10.5705C3.70529 10.5733 3.8358 10.6296 3.93174 10.7275C4.02769 10.8254 4.08143 10.957 4.08142 11.0941C4.08142 11.2312 4.02767 11.3628 3.93172 11.4606C3.83577 11.5585 3.70526 11.6149 3.56822 11.6176C3.43118 11.6149 3.30067 11.5585 3.20473 11.4606C3.10878 11.3627 3.05504 11.2311 3.05504 11.0941C3.05505 10.957 3.1088 10.8254 3.20475 10.7275C3.3007 10.6296 3.43121 10.5732 3.56825 10.5705Z" fill="black"/>
<path d="M2.53161 13.7014H2.63108V14.9422H15.3064C15.3597 14.6889 15.4728 14.4519 15.6362 14.2511L15.9242 13.9003L15.4635 13.8532C15.0751 13.8154 14.7149 13.6339 14.4534 13.3444C14.1919 13.0548 14.048 12.678 14.0499 12.2878V9.90036C14.0485 9.60582 14.1303 9.31687 14.2859 9.06678C14.4415 8.8167 14.6646 8.61564 14.9294 8.48676H2.53161C2.11514 8.48709 1.71583 8.65267 1.42134 8.94716C1.12685 9.24164 0.961268 9.64096 0.960938 10.0574V12.1307C0.961262 12.5472 1.12685 12.9465 1.42133 13.241C1.71582 13.5355 2.11514 13.7011 2.53161 13.7014ZM7.7567 10.5705C7.89374 10.5733 8.02425 10.6296 8.12019 10.7275C8.21614 10.8254 8.26988 10.957 8.26988 11.0941C8.26987 11.2312 8.21613 11.3628 8.12017 11.4606C8.02422 11.5585 7.89371 11.6149 7.75667 11.6176C7.61963 11.6149 7.48913 11.5585 7.39318 11.4606C7.29723 11.3627 7.24349 11.2311 7.2435 11.0941C7.2435 10.957 7.29725 10.8254 7.3932 10.7275C7.48915 10.6296 7.61966 10.5732 7.7567 10.5705ZM5.66248 10.5705C5.79952 10.5733 5.93002 10.6296 6.02597 10.7275C6.12191 10.8254 6.17565 10.957 6.17565 11.0941C6.17565 11.2312 6.1219 11.3628 6.02595 11.4606C5.92999 11.5585 5.79949 11.6149 5.66245 11.6176C5.5254 11.6149 5.3949 11.5585 5.29895 11.4606C5.20301 11.3627 5.14927 11.2311 5.14927 11.0941C5.14927 10.957 5.20302 10.8254 5.29897 10.7275C5.39493 10.6296 5.52543 10.5732 5.66248 10.5705ZM3.56825 10.5705C3.70529 10.5733 3.8358 10.6296 3.93174 10.7275C4.02769 10.8254 4.08143 10.957 4.08142 11.0941C4.08142 11.2312 4.02767 11.3628 3.93172 11.4606C3.83577 11.5585 3.70526 11.6149 3.56822 11.6176C3.43118 11.6149 3.30067 11.5585 3.20473 11.4606C3.10878 11.3627 3.05504 11.2311 3.05504 11.0941C3.05505 10.957 3.1088 10.8254 3.20475 10.7275C3.3007 10.6296 3.43121 10.5732 3.56825 10.5705Z" fill="url(#paint2_linear_54_134)"/>
<path d="M2.53161 13.7014H2.63108V14.9422H15.3064C15.3597 14.6889 15.4728 14.4519 15.6362 14.2511L15.9242 13.9003L15.4635 13.8532C15.0751 13.8154 14.7149 13.6339 14.4534 13.3444C14.1919 13.0548 14.048 12.678 14.0499 12.2878V9.90036C14.0485 9.60582 14.1303 9.31687 14.2859 9.06678C14.4415 8.8167 14.6646 8.61564 14.9294 8.48676H2.53161C2.11514 8.48709 1.71583 8.65267 1.42134 8.94716C1.12685 9.24164 0.961268 9.64096 0.960938 10.0574V12.1307C0.961262 12.5472 1.12685 12.9465 1.42133 13.241C1.71582 13.5355 2.11514 13.7011 2.53161 13.7014ZM7.7567 10.5705C7.89374 10.5733 8.02425 10.6296 8.12019 10.7275C8.21614 10.8254 8.26988 10.957 8.26988 11.0941C8.26987 11.2312 8.21613 11.3628 8.12017 11.4606C8.02422 11.5585 7.89371 11.6149 7.75667 11.6176C7.61963 11.6149 7.48913 11.5585 7.39318 11.4606C7.29723 11.3627 7.24349 11.2311 7.2435 11.0941C7.2435 10.957 7.29725 10.8254 7.3932 10.7275C7.48915 10.6296 7.61966 10.5732 7.7567 10.5705ZM5.66248 10.5705C5.79952 10.5733 5.93002 10.6296 6.02597 10.7275C6.12191 10.8254 6.17565 10.957 6.17565 11.0941C6.17565 11.2312 6.1219 11.3628 6.02595 11.4606C5.92999 11.5585 5.79949 11.6149 5.66245 11.6176C5.5254 11.6149 5.3949 11.5585 5.29895 11.4606C5.20301 11.3627 5.14927 11.2311 5.14927 11.0941C5.14927 10.957 5.20302 10.8254 5.29897 10.7275C5.39493 10.6296 5.52543 10.5732 5.66248 10.5705ZM3.56825 10.5705C3.70529 10.5733 3.8358 10.6296 3.93174 10.7275C4.02769 10.8254 4.08143 10.957 4.08142 11.0941C4.08142 11.2312 4.02767 11.3628 3.93172 11.4606C3.83577 11.5585 3.70526 11.6149 3.56822 11.6176C3.43118 11.6149 3.30067 11.5585 3.20473 11.4606C3.10878 11.3627 3.05504 11.2311 3.05504 11.0941C3.05505 10.957 3.1088 10.8254 3.20475 10.7275C3.3007 10.6296 3.43121 10.5732 3.56825 10.5705Z" fill="#E17351"/>
<path d="M30.5471 9.44339L29.3896 9.32765C29.2822 9.30867 29.1812 9.26288 29.0962 9.19452C29.0111 9.12616 28.9447 9.03744 28.9031 8.93657C28.8614 8.83571 28.8459 8.72597 28.8579 8.61751C28.87 8.50906 28.9092 8.40539 28.9719 8.31612L29.7067 7.42035C29.7864 7.32431 29.8275 7.20202 29.8219 7.07734C29.8163 6.95265 29.7645 6.83453 29.6765 6.746L28.051 5.12051C27.9625 5.03253 27.8443 4.98069 27.7197 4.97511C27.595 4.96953 27.4727 5.0106 27.3767 5.09032L26.4758 5.82506C26.3865 5.88614 26.2834 5.92396 26.1757 5.93511C26.0681 5.94626 25.9594 5.93037 25.8594 5.8889C25.7595 5.84742 25.6715 5.78166 25.6034 5.69757C25.5352 5.61349 25.4892 5.51374 25.4694 5.40736L25.3536 4.24989C25.3411 4.12533 25.2826 4.00991 25.1895 3.92616C25.0965 3.84242 24.9755 3.79635 24.8504 3.79697H22.5556C22.4304 3.79635 22.3094 3.84242 22.2164 3.92616C22.1233 4.00991 22.0648 4.12533 22.0523 4.24989L21.9366 5.40736C21.9167 5.51374 21.8707 5.61348 21.8025 5.69756C21.7344 5.78164 21.6464 5.84739 21.5465 5.88886C21.4465 5.93034 21.3378 5.94622 21.2302 5.93507C21.1225 5.92392 21.0194 5.8861 20.9301 5.82502L20.0293 5.09032C19.9332 5.0106 19.8109 4.96953 19.6863 4.97511C19.5616 4.98069 19.4434 5.03253 19.3549 5.12051L17.7294 6.746C17.6415 6.83453 17.5896 6.95265 17.584 7.07734C17.5785 7.20202 17.6195 7.32431 17.6992 7.42035L18.434 8.32116C18.4952 8.41044 18.5332 8.51361 18.5444 8.62129C18.5556 8.72898 18.5398 8.83776 18.4983 8.93776C18.4568 9.03776 18.391 9.12581 18.3068 9.1939C18.2226 9.26199 18.1227 9.30796 18.0163 9.32765L16.8588 9.44339C16.7342 9.45591 16.6188 9.51441 16.5351 9.60746C16.4513 9.70052 16.4053 9.82145 16.4059 9.94664V12.2414C16.4053 12.3666 16.4513 12.4876 16.5351 12.5806C16.6188 12.6737 16.7342 12.7322 16.8588 12.7447L18.0163 12.8604C18.1231 12.8804 18.2233 12.9268 18.3077 12.9954C18.392 13.0639 18.458 13.1524 18.4995 13.2529C18.541 13.3534 18.5567 13.4626 18.5453 13.5707C18.5338 13.6789 18.4956 13.7824 18.434 13.872L17.6992 14.7677C17.6195 14.8638 17.5785 14.9861 17.584 15.1107C17.5896 15.2354 17.6415 15.3536 17.7294 15.4421L19.3549 17.0676C19.4434 17.1555 19.5616 17.2074 19.6863 17.213C19.8109 17.2185 19.9332 17.1775 20.0293 17.0978L20.9301 16.363C21.0194 16.3019 21.1226 16.2641 21.2302 16.253C21.3378 16.2418 21.4465 16.2577 21.5465 16.2992C21.6464 16.3407 21.7345 16.4064 21.8026 16.4905C21.8707 16.5746 21.9167 16.6744 21.9366 16.7807L22.0523 17.9382C22.0648 18.0628 22.1233 18.1782 22.2164 18.2619C22.3094 18.3457 22.4304 18.3918 22.5556 18.3911H24.8504C24.9755 18.3918 25.0965 18.3457 25.1895 18.2619C25.2826 18.1782 25.3411 18.0628 25.3536 17.9382L25.4694 16.7807C25.4859 16.6699 25.532 16.5656 25.6029 16.4788C25.6737 16.3921 25.7667 16.326 25.872 16.2876C25.9704 16.246 26.078 16.2311 26.184 16.2443C26.29 16.2576 26.3907 16.2985 26.4758 16.363L27.3767 17.0978C27.4727 17.1775 27.595 17.2185 27.7197 17.213C27.8443 17.2074 27.9625 17.1555 28.051 17.0676L29.6765 15.4421C29.7645 15.3536 29.8163 15.2354 29.8219 15.1107C29.8275 14.9861 29.7864 14.8638 29.7067 14.7677L28.9719 13.8669C28.9107 13.7776 28.8727 13.6745 28.8615 13.5668C28.8503 13.4591 28.8661 13.3503 28.9076 13.2503C28.9491 13.1503 29.015 13.0623 29.0992 12.9942C29.1833 12.9261 29.2832 12.8801 29.3897 12.8604L30.5471 12.7447C30.6717 12.7322 30.7871 12.6737 30.8708 12.5806C30.9546 12.4876 31.0007 12.3666 31 12.2414V9.94664C31.0007 9.82145 30.9546 9.70052 30.8708 9.60746C30.7871 9.51441 30.6717 9.45591 30.5471 9.44339ZM23.703 13.6103C20.3772 13.5066 20.378 8.68098 23.703 8.57781C27.0287 8.68148 27.028 13.5071 23.703 13.6103Z" fill="#3F6972"/>
<defs>
<linearGradient id="paint0_linear_54_134" x1="-0.442319" y1="3.24119" x2="27.8062" y2="-2.48047" gradientUnits="userSpaceOnUse">
<stop stop-color="#A9E5BB"/>
<stop offset="1" stop-color="#3F6972"/>
</linearGradient>
<linearGradient id="paint1_linear_54_134" x1="-0.442319" y1="17.8171" x2="27.2262" y2="10.8807" gradientUnits="userSpaceOnUse">
<stop stop-color="#A9E5BB"/>
<stop offset="1" stop-color="#3F6972"/>
</linearGradient>
<linearGradient id="paint2_linear_54_134" x1="-0.223501" y1="10.7472" x2="23.8923" y2="6.62093" gradientUnits="userSpaceOnUse">
<stop stop-color="#A9E5BB"/>
<stop offset="1" stop-color="#3F6972"/>
</linearGradient>
</defs>
</svg>
