<svg width="36" height="31" viewBox="0 0 36 31" fill="none" xmlns="http://www.w3.org/2000/svg">
<path d="M35.5405 12.5163C34.2657 11.0991 30.4819 12.4146 27.0846 15.4593C25.2673 17.0935 23.9314 18.8905 23.2737 20.423C23.5381 20.423 23.8094 20.4365 24.0806 20.4569C25.3554 20.5518 26.3658 21.569 26.454 22.8438C26.4743 23.1354 26.4879 23.4609 26.4879 23.8067C28.0543 23.2981 29.9259 22.1861 31.6957 20.5993C35.093 17.5546 36.8154 13.9403 35.5405 12.5163Z" fill="#3F6972"/>
<path d="M24.0128 21.3791C20.4934 21.1011 19.083 22.5387 19.083 22.5387C18.1879 23.2778 17.8149 24.3018 17.5505 25.3799C17.4013 25.9902 17.2792 26.6005 17.1165 27.204C16.9402 27.8279 16.5333 28.2076 15.862 28.2755C15.5365 28.3094 15.2992 28.4653 15.2585 28.8179C15.2178 29.1841 15.4144 29.3808 15.7399 29.5028C16.8724 29.9232 18.0726 30.1538 19.2796 30.1877C22.0327 30.2013 23.9721 29.0146 24.9621 26.7565C25.586 25.5563 25.6131 24.0102 25.5318 22.9117C25.4707 22.0979 24.8265 21.4469 24.0128 21.3791Z" fill="#3F6972"/>
<path d="M15.6198 26.0937C15.7215 25.7275 15.8097 25.3546 15.8978 24.9613C15.9453 24.7443 15.9996 24.5205 16.047 24.3035C16.3183 23.1914 16.7455 21.9301 17.8643 20.9876C18.122 20.7502 19.2816 19.7873 21.6685 19.5907C21.7567 19.3533 21.8584 19.1024 21.9804 18.8515C22.7603 17.2173 24.1368 15.461 25.8727 13.9082C26.1779 13.6301 26.4898 13.3725 26.8085 13.1216C26.7746 12.5248 26.7068 11.9349 26.5983 11.3449C25.9338 7.77133 24.0826 4.95042 21.0921 2.90933C18.8272 1.35647 16.2979 0.644459 13.5516 0.671583C11.5512 0.691926 9.64572 1.08523 7.84197 1.92608C5.48217 3.0246 3.51566 4.59102 2.1798 6.86267C1.07449 8.70033 0.504883 10.7075 0.667628 12.8435C0.87106 15.5424 2.20692 17.6106 4.5057 19.0346C5.99074 19.9569 7.63854 20.262 9.15071 20.1874C9.80169 20.1874 10.2425 20.1942 10.6764 20.1874C10.9884 20.1806 11.2393 20.2688 11.3817 20.5604C11.5241 20.852 11.4224 21.0893 11.2325 21.3198C10.5001 22.2149 10.2492 23.2253 10.5883 24.3306C11.0494 25.8225 12.3446 26.7243 13.9449 26.6701C14.1687 26.6633 14.3925 26.6497 14.6094 26.6362C14.7858 26.5616 14.9756 26.5141 15.1655 26.4938C15.4028 26.4667 15.5317 26.4056 15.6198 26.0937ZM24.8895 12.9927C24.8895 14.5524 23.6282 15.8136 22.0686 15.8136C20.5089 15.8136 19.2477 14.5524 19.2477 12.9927C19.2477 11.4331 20.5089 10.1718 22.0686 10.1718C23.6282 10.1718 24.8895 11.4331 24.8895 12.9927ZM18.339 4.0621C19.8987 4.0621 21.1599 5.32338 21.1599 6.88301C21.1599 8.44265 19.8987 9.70393 18.339 9.70393C16.7794 9.70393 15.5181 8.44265 15.5181 6.88301C15.5181 5.32338 16.7794 4.0621 18.339 4.0621ZM5.69916 14.1862C4.13952 14.1862 2.87825 12.9249 2.87825 11.3653C2.87825 9.80564 4.13952 8.54437 5.69916 8.54437C7.2588 8.54437 8.52007 9.80564 8.52007 11.3653C8.52007 12.9181 7.25202 14.1862 5.69916 14.1862ZM10.907 8.96479C9.34736 8.96479 8.08608 7.70352 8.08608 6.15066C8.08608 4.59102 9.34736 3.32975 10.9002 3.32975C12.4531 3.32975 13.7211 4.59102 13.7211 6.14388C13.7279 7.69674 12.4666 8.95801 10.907 8.96479Z" fill="black"/>
<path d="M15.6198 26.0937C15.7215 25.7275 15.8097 25.3546 15.8978 24.9613C15.9453 24.7443 15.9996 24.5205 16.047 24.3035C16.3183 23.1914 16.7455 21.9301 17.8643 20.9876C18.122 20.7502 19.2816 19.7873 21.6685 19.5907C21.7567 19.3533 21.8584 19.1024 21.9804 18.8515C22.7603 17.2173 24.1368 15.461 25.8727 13.9082C26.1779 13.6301 26.4898 13.3725 26.8085 13.1216C26.7746 12.5248 26.7068 11.9349 26.5983 11.3449C25.9338 7.77133 24.0826 4.95042 21.0921 2.90933C18.8272 1.35647 16.2979 0.644459 13.5516 0.671583C11.5512 0.691926 9.64572 1.08523 7.84197 1.92608C5.48217 3.0246 3.51566 4.59102 2.1798 6.86267C1.07449 8.70033 0.504883 10.7075 0.667628 12.8435C0.87106 15.5424 2.20692 17.6106 4.5057 19.0346C5.99074 19.9569 7.63854 20.262 9.15071 20.1874C9.80169 20.1874 10.2425 20.1942 10.6764 20.1874C10.9884 20.1806 11.2393 20.2688 11.3817 20.5604C11.5241 20.852 11.4224 21.0893 11.2325 21.3198C10.5001 22.2149 10.2492 23.2253 10.5883 24.3306C11.0494 25.8225 12.3446 26.7243 13.9449 26.6701C14.1687 26.6633 14.3925 26.6497 14.6094 26.6362C14.7858 26.5616 14.9756 26.5141 15.1655 26.4938C15.4028 26.4667 15.5317 26.4056 15.6198 26.0937ZM24.8895 12.9927C24.8895 14.5524 23.6282 15.8136 22.0686 15.8136C20.5089 15.8136 19.2477 14.5524 19.2477 12.9927C19.2477 11.4331 20.5089 10.1718 22.0686 10.1718C23.6282 10.1718 24.8895 11.4331 24.8895 12.9927ZM18.339 4.0621C19.8987 4.0621 21.1599 5.32338 21.1599 6.88301C21.1599 8.44265 19.8987 9.70393 18.339 9.70393C16.7794 9.70393 15.5181 8.44265 15.5181 6.88301C15.5181 5.32338 16.7794 4.0621 18.339 4.0621ZM5.69916 14.1862C4.13952 14.1862 2.87825 12.9249 2.87825 11.3653C2.87825 9.80564 4.13952 8.54437 5.69916 8.54437C7.2588 8.54437 8.52007 9.80564 8.52007 11.3653C8.52007 12.9181 7.25202 14.1862 5.69916 14.1862ZM10.907 8.96479C9.34736 8.96479 8.08608 7.70352 8.08608 6.15066C8.08608 4.59102 9.34736 3.32975 10.9002 3.32975C12.4531 3.32975 13.7211 4.59102 13.7211 6.14388C13.7279 7.69674 12.4666 8.95801 10.907 8.96479Z" fill="url(#paint0_linear_7_147)"/>
<path d="M15.6198 26.0937C15.7215 25.7275 15.8097 25.3546 15.8978 24.9613C15.9453 24.7443 15.9996 24.5205 16.047 24.3035C16.3183 23.1914 16.7455 21.9301 17.8643 20.9876C18.122 20.7502 19.2816 19.7873 21.6685 19.5907C21.7567 19.3533 21.8584 19.1024 21.9804 18.8515C22.7603 17.2173 24.1368 15.461 25.8727 13.9082C26.1779 13.6301 26.4898 13.3725 26.8085 13.1216C26.7746 12.5248 26.7068 11.9349 26.5983 11.3449C25.9338 7.77133 24.0826 4.95042 21.0921 2.90933C18.8272 1.35647 16.2979 0.644459 13.5516 0.671583C11.5512 0.691926 9.64572 1.08523 7.84197 1.92608C5.48217 3.0246 3.51566 4.59102 2.1798 6.86267C1.07449 8.70033 0.504883 10.7075 0.667628 12.8435C0.87106 15.5424 2.20692 17.6106 4.5057 19.0346C5.99074 19.9569 7.63854 20.262 9.15071 20.1874C9.80169 20.1874 10.2425 20.1942 10.6764 20.1874C10.9884 20.1806 11.2393 20.2688 11.3817 20.5604C11.5241 20.852 11.4224 21.0893 11.2325 21.3198C10.5001 22.2149 10.2492 23.2253 10.5883 24.3306C11.0494 25.8225 12.3446 26.7243 13.9449 26.6701C14.1687 26.6633 14.3925 26.6497 14.6094 26.6362C14.7858 26.5616 14.9756 26.5141 15.1655 26.4938C15.4028 26.4667 15.5317 26.4056 15.6198 26.0937ZM24.8895 12.9927C24.8895 14.5524 23.6282 15.8136 22.0686 15.8136C20.5089 15.8136 19.2477 14.5524 19.2477 12.9927C19.2477 11.4331 20.5089 10.1718 22.0686 10.1718C23.6282 10.1718 24.8895 11.4331 24.8895 12.9927ZM18.339 4.0621C19.8987 4.0621 21.1599 5.32338 21.1599 6.88301C21.1599 8.44265 19.8987 9.70393 18.339 9.70393C16.7794 9.70393 15.5181 8.44265 15.5181 6.88301C15.5181 5.32338 16.7794 4.0621 18.339 4.0621ZM5.69916 14.1862C4.13952 14.1862 2.87825 12.9249 2.87825 11.3653C2.87825 9.80564 4.13952 8.54437 5.69916 8.54437C7.2588 8.54437 8.52007 9.80564 8.52007 11.3653C8.52007 12.9181 7.25202 14.1862 5.69916 14.1862ZM10.907 8.96479C9.34736 8.96479 8.08608 7.70352 8.08608 6.15066C8.08608 4.59102 9.34736 3.32975 10.9002 3.32975C12.4531 3.32975 13.7211 4.59102 13.7211 6.14388C13.7279 7.69674 12.4666 8.95801 10.907 8.96479Z" fill="#E17351"/>
<defs>
<linearGradient id="paint0_linear_7_147" x1="-1.43116" y1="9.77543" x2="41.7398" y2="6.56826" gradientUnits="userSpaceOnUse">
<stop stop-color="#A9E5BB"/>
<stop offset="1" stop-color="#3F6972"/>
</linearGradient>
</defs>
</svg>
