<svg width="44" height="44" viewBox="0 0 44 44" fill="none" xmlns="http://www.w3.org/2000/svg">
<path d="M37.0001 14.9723C37.0001 13.3587 35.6845 12.0487 34.0709 12.0487C33.177 12.0487 32.3674 12.4535 31.8333 13.0888L24.7661 9.01274C24.873 8.71476 24.9292 8.3943 24.9292 8.06259C24.9292 6.44902 23.6136 5.13342 22 5.13342C20.3865 5.13342 19.0709 6.44902 19.0709 8.06259C19.0709 8.3943 19.1271 8.71476 19.2339 9.01274L12.1668 13.0888C11.6327 12.4535 10.8231 12.0487 9.92917 12.0487C8.31559 12.0487 7 13.3587 7 14.9723C7 16.4003 8.02324 17.5866 9.36695 17.8452V26.1548C8.02324 26.4134 7 27.5997 7 29.0278C7 30.6413 8.31559 31.9513 9.92917 31.9513C10.8231 31.9513 11.6327 31.5465 12.1668 30.9112L19.2339 34.9873C19.1271 35.2853 19.0709 35.6057 19.0709 35.9375C19.0709 37.551 20.3865 38.8666 22 38.8666C23.6136 38.8666 24.9292 37.551 24.9292 35.9375C24.9292 35.6057 24.873 35.2853 24.7661 34.9873L31.8333 30.9112C32.3674 31.5465 33.177 31.9513 34.0709 31.9513C35.6845 31.9513 37.0001 30.6413 37.0001 29.0278C37.0001 27.5997 35.9768 26.4134 34.6331 26.1548V17.8452C35.9768 17.5866 37.0001 16.4003 37.0001 14.9723ZM24.2039 34.0147C23.6698 33.3962 22.8771 33.0083 22 33.0083C21.123 33.0083 20.3302 33.3962 19.7961 34.0147L12.7178 29.9273C12.8077 29.6462 12.8583 29.3426 12.8583 29.0278C12.8583 27.5997 11.8351 26.4134 10.4914 26.1548V17.8452C11.8351 17.5866 12.8583 16.4003 12.8583 14.9723C12.8583 14.6574 12.8077 14.3538 12.7178 14.0727L19.7961 9.98538C20.3302 10.6038 21.123 10.9918 22 10.9918C22.8771 10.9918 23.6698 10.6038 24.2039 9.98538L31.2823 14.0727C31.1923 14.3538 31.1417 14.6574 31.1417 14.9723C31.1417 16.4003 32.165 17.5866 33.5087 17.8452V26.1548C32.165 26.4134 31.1417 27.5997 31.1417 29.0278C31.1417 29.3426 31.1923 29.6462 31.2823 29.9273L24.2039 34.0147Z" fill="#3F6972"/>
<path d="M22 13.3025C17.2043 13.3025 13.3025 17.2043 13.3025 22C13.3025 26.7958 17.2043 30.6976 22 30.6976C26.7958 30.6976 30.6976 26.7958 30.6976 22C30.6976 17.2043 26.7958 13.3025 22 13.3025ZM19.1102 23.2088L18.4693 24.6087C18.34 24.8898 18.0083 25.0135 17.7272 24.8842C17.4404 24.7549 17.3167 24.4232 17.4461 24.1365L20.0154 18.5424C20.1054 18.34 20.3077 18.2107 20.527 18.2107C20.7463 18.2107 20.9431 18.34 21.0386 18.5424L22.8153 22.4273L23.6024 24.1365C23.7317 24.4232 23.608 24.7549 23.3269 24.8842C23.2538 24.918 23.1694 24.9348 23.0964 24.9348C22.8827 24.9348 22.6747 24.8111 22.5847 24.6087L21.9438 23.2088H19.1102ZM25.587 24.3726C25.587 24.6818 25.334 24.9348 25.0248 24.9348C24.7156 24.9348 24.4626 24.6818 24.4626 24.3726V18.7729C24.4626 18.4637 24.7156 18.2107 25.0248 18.2107C25.334 18.2107 25.587 18.4637 25.587 18.7729V24.3726Z" fill="#E17351"/>
<path d="M19.6274 22.0843H21.4265L20.527 20.1222L19.6274 22.0843Z" fill="#E17351"/>
</svg>
