<svg width="27" height="34" viewBox="0 0 27 34" fill="none" xmlns="http://www.w3.org/2000/svg">
<path d="M13.8988 24.6458L2.31714 27.4322V6.323L13.8988 9.02498V24.6458Z" fill="#E05243"/>
<path d="M13.5578 24.7303L24.8013 27.4322V6.323L13.5578 9.02498V24.7303Z" fill="#8C3123"/>
<path d="M13.5585 0.665283V8.85567L18.4617 10.0378V3.11396L13.5585 0.665283ZM24.802 6.32256V27.4318L27 26.3341V7.3358L24.802 6.32256ZM13.5585 12.8242V21.0146L18.4617 20.3391V13.4153L13.5585 12.8242ZM18.4617 23.7166L13.5585 24.8987V33.0891L18.4617 30.6404V23.7166Z" fill="#E05243"/>
<path d="M13.5578 33.0894L13.5578 24.899L8.65457 23.7169V30.6407L13.5578 33.0894ZM2.31422 27.4321L2.31422 6.32284L0.116235 7.42052L0.116235 26.4188L2.31422 27.4321ZM13.5578 20.9304V12.74L8.65457 13.4155L8.65457 20.3394L13.5578 20.9304ZM8.65457 10.0381L13.5578 8.85595V0.665562L8.65457 3.11423V10.0381Z" fill="#8C3123"/>
<path d="M18.4628 10.0382L13.5596 10.967L8.65637 10.0382L13.5596 8.77161L18.4628 10.0382Z" fill="#5E1F18"/>
<path d="M18.4628 23.7169L13.5596 22.7881L8.65637 23.7169L13.5596 25.0679L18.4628 23.7169Z" fill="#F2B0A9"/>
</svg>
