<svg width="44" height="44" viewBox="0 0 44 44" fill="none" xmlns="http://www.w3.org/2000/svg">
<path fill-rule="evenodd" clip-rule="evenodd" d="M23.3602 21.9686C22.9396 21.5564 22.9396 20.888 23.3602 20.4758C23.7807 20.0636 24.4626 20.0636 24.8831 20.4758L29.0714 24.581C29.4919 24.9932 29.4919 25.6616 29.0714 26.0738L24.8831 30.1789C24.4626 30.5911 23.7807 30.5911 23.3602 30.1789C22.9396 29.7667 22.9396 29.0984 23.3602 28.6862L26.7869 25.3274L23.3602 21.9686ZM20.5752 28.6863C20.9958 29.0985 20.9958 29.7667 20.5752 30.179C20.1547 30.5912 19.4728 30.5912 19.0522 30.179L14.864 26.0739C14.4434 25.6617 14.4434 24.9933 14.864 24.5811L19.0522 20.4759C19.4728 20.0638 20.1547 20.0638 20.5752 20.4759C20.9958 20.8881 20.9958 21.5565 20.5752 21.9687L17.1485 25.3275L20.5752 28.6863ZM8 17H36V30.7222C36 33.637 33.5892 36 30.6154 36H13.3846C10.4108 36 8 33.637 8 30.7222V17Z" fill="#E17351"/>
<path fill-rule="evenodd" clip-rule="evenodd" d="M8 13C8 10.2386 10.4108 8 13.3846 8H30.6154C33.5892 8 36 10.2386 36 13V14H34.9231H9.07692H8V13Z" fill="#3F6972"/>
</svg>
