<svg width="34" height="35" viewBox="0 0 34 35" fill="none" xmlns="http://www.w3.org/2000/svg">
<path d="M23.4525 18.5456L22.9766 18.5403V16.7643C24.136 16.3531 24.9688 15.2457 24.9688 13.9465C24.9688 13.3964 24.5228 12.9508 23.9727 12.9508C23.4225 12.9508 22.9766 13.3973 22.9766 13.9474C22.9766 14.1745 22.8993 14.3835 22.7708 14.5513C22.4588 13.6609 21.8133 12.926 20.9844 12.4973C20.9577 12.2491 21.1356 11.1729 20.4189 9.9782L20.9583 9.43878C21.3473 9.04984 21.3473 8.41912 20.9583 8.03011C20.5693 7.64117 19.9386 7.64117 19.5496 8.03011L19.0013 8.57843C17.765 7.85705 16.2374 7.85573 14.9988 8.57843L14.4505 8.03011C14.0615 7.64117 13.4308 7.64117 13.0418 8.03011C12.6528 8.41905 12.6528 9.04978 13.0418 9.43878L13.5812 9.9782C12.8653 11.1714 13.0435 12.2388 13.0157 12.4973C12.1532 12.9434 11.4891 13.7211 11.1928 14.6604C11.0068 14.4793 10.8907 14.2265 10.8907 13.9465C10.8907 13.3964 10.4447 12.9508 9.8946 12.9508C9.34449 12.9508 8.8985 13.3973 8.8985 13.9474C8.8985 15.295 9.79539 16.4367 11.0235 16.808V18.5389L10.4147 18.5457C9.02939 18.561 7.90234 19.7006 7.90234 21.086C7.90234 21.6361 8.34833 22.0821 8.89844 22.0821C9.44855 22.0821 9.89453 21.6361 9.89453 21.086C9.89453 20.7869 10.1378 20.541 10.4367 20.5377L11.0234 20.5312C11.0434 20.7854 10.9079 21.8784 11.4677 23.2447C9.77108 24.1415 9.92986 25.9374 9.92621 25.9506C9.93457 26.4944 10.3793 26.9384 10.9374 26.9313C11.4875 26.9229 11.9266 26.4702 11.9182 25.9201C11.9209 25.9109 11.8361 25.1811 12.5328 24.9505C13.4047 25.932 14.5933 26.6261 15.9376 26.8683V13.6332C15.9376 13.0831 16.3836 12.6371 16.9337 12.6371C17.4838 12.6371 17.9298 13.0831 17.9298 13.6332V26.8905C19.3103 26.674 20.5346 25.9822 21.4321 24.9897C21.5276 25.0344 21.6158 25.0954 21.6922 25.1729C22.0028 25.4885 21.9439 25.8852 21.9492 25.9201C21.9407 26.4759 22.3888 26.9314 22.9455 26.9314C23.4885 26.9314 23.9327 26.4954 23.9411 25.9505C23.9355 25.9294 24.1055 24.2403 22.5076 23.305C23.0958 21.9133 22.9551 20.7974 22.9766 20.5325L23.4304 20.5376C23.7295 20.5409 23.9727 20.7869 23.9727 21.0859C23.9727 21.636 24.4187 22.082 24.9688 22.082C25.5189 22.082 25.9649 21.636 25.9649 21.0859C25.9648 19.7006 24.8378 18.561 23.4525 18.5456Z" fill="#E17351"/>
<path d="M33.0039 16.5039H32.6061C32.1113 8.67268 25.8273 2.38873 17.9961 1.89393V1.49609C17.9961 0.945984 17.5501 0.5 17 0.5C16.4499 0.5 16.0039 0.945984 16.0039 1.49609V1.89393C8.17268 2.38873 1.88873 8.67268 1.39393 16.5039H0.996094C0.445984 16.5039 0 16.9499 0 17.5C0 18.0501 0.445984 18.4961 0.996094 18.4961H1.39393C1.88873 26.3273 8.17268 32.6113 16.0039 33.1061V33.5039C16.0039 34.054 16.4499 34.5 17 34.5C17.5501 34.5 17.9961 34.054 17.9961 33.5039V33.1061C25.8273 32.6113 32.1113 26.3273 32.6061 18.4961H33.0039C33.554 18.4961 34 18.0501 34 17.5C34 16.9499 33.554 16.5039 33.0039 16.5039ZM17.9961 31.11V30.4492C17.9961 29.8991 17.5501 29.4531 17 29.4531C16.4499 29.4531 16.0039 29.8991 16.0039 30.4492V31.11C9.27151 30.6219 3.87806 25.2285 3.39004 18.4961H4.05078C4.60089 18.4961 5.04688 18.0501 5.04688 17.5C5.04688 16.9499 4.60089 16.5039 4.05078 16.5039H3.39004C3.87806 9.77151 9.27151 4.37806 16.0039 3.89004V4.55078C16.0039 5.10089 16.4499 5.54688 17 5.54688C17.5501 5.54688 17.9961 5.10089 17.9961 4.55078V3.89004C24.7285 4.37806 30.1219 9.77151 30.61 16.5039H29.9492C29.3991 16.5039 28.9531 16.9499 28.9531 17.5C28.9531 18.0501 29.3991 18.4961 29.9492 18.4961H30.61C30.1219 25.2285 24.7285 30.6219 17.9961 31.11Z" fill="#3F6972"/>
</svg>
