<svg width="32" height="32" viewBox="0 0 32 32" fill="none" xmlns="http://www.w3.org/2000/svg">
<path d="M19.2151 6.03436C19.6234 6.03436 19.9276 6.40928 19.8958 6.81635C19.8828 6.98453 19.8761 7.1545 19.8761 7.32603C19.8761 8.99386 20.5082 10.514 21.5461 11.66C22.1495 12.3262 22.89 12.866 23.7232 13.2347C24.5217 13.5881 25.405 13.7844 26.3344 13.7844C27.3261 13.7844 28.2656 13.5609 29.1051 13.1615C29.586 12.9328 30.2094 13.2536 30.2094 13.786V22.826C30.2094 24.9662 28.4746 26.701 26.3344 26.701H5.66772C3.52763 26.701 1.79272 24.9662 1.79272 22.826V9.90936C1.79272 7.76927 3.52763 6.03436 5.66772 6.03436H19.2151Z" fill="#C2D3C7"/>
<path d="M19.2151 6.03436C19.6234 6.03436 19.9276 6.40928 19.8958 6.81635C19.8828 6.98453 19.8761 7.1545 19.8761 7.32603C19.8761 8.99386 20.5082 10.514 21.5461 11.66C22.1495 12.3262 22.89 12.866 23.7232 13.2347C24.5217 13.5881 25.405 13.7844 26.3344 13.7844C27.3261 13.7844 28.2656 13.5609 29.1051 13.1615C29.586 12.9328 30.2094 13.2536 30.2094 13.786V22.826C30.2094 24.9662 28.4746 26.701 26.3344 26.701H5.66772C3.52763 26.701 1.79272 24.9662 1.79272 22.826V9.90936C1.79272 7.76927 3.52763 6.03436 5.66772 6.03436H19.2151Z" fill="url(#paint0_linear_54_158)"/>
<path d="M19.2151 6.03436C19.6234 6.03436 19.9276 6.40928 19.8958 6.81635C19.8828 6.98453 19.8761 7.1545 19.8761 7.32603C19.8761 8.99386 20.5082 10.514 21.5461 11.66C22.1495 12.3262 22.89 12.866 23.7232 13.2347C24.5217 13.5881 25.405 13.7844 26.3344 13.7844C27.3261 13.7844 28.2656 13.5609 29.1051 13.1615C29.586 12.9328 30.2094 13.2536 30.2094 13.786V22.826C30.2094 24.9662 28.4746 26.701 26.3344 26.701H5.66772C3.52763 26.701 1.79272 24.9662 1.79272 22.826V9.90936C1.79272 7.76927 3.52763 6.03436 5.66772 6.03436H19.2151Z" fill="#E17351"/>
<path fill-rule="evenodd" clip-rule="evenodd" d="M26.3344 11.201C28.4746 11.201 30.2094 9.46609 30.2094 7.32599C30.2094 5.18589 28.4746 3.45099 26.3344 3.45099C24.1942 3.45099 22.4594 5.18589 22.4594 7.32599C22.4594 9.46609 24.1942 11.201 26.3344 11.201ZM16.7992 15.3897L21.5461 11.6599C22.1495 12.3262 22.89 12.866 23.7232 13.2347L18.3952 17.421C16.9901 18.525 15.0122 18.525 13.6071 17.421L6.16143 11.5709C5.60049 11.1301 5.50305 10.3181 5.94378 9.75719C6.38452 9.19626 7.19653 9.09881 7.75746 9.53954L15.2031 15.3897C15.6714 15.7577 16.3308 15.7577 16.7992 15.3897Z" fill="#3F6972"/>
<defs>
<linearGradient id="paint0_linear_54_158" x1="-0.456639" y1="13.2709" x2="46.2016" y2="8.5352" gradientUnits="userSpaceOnUse">
<stop stop-color="#A9E5BB"/>
<stop offset="1" stop-color="#3F6972"/>
</linearGradient>
</defs>
</svg>
