<svg width="67" height="67" viewBox="0 0 67 67" fill="none" xmlns="http://www.w3.org/2000/svg">
<g id="Doc">
<path id="Vector" d="M35.6721 39.729H35.6855C35.9958 39.729 36.2731 39.656 36.5143 39.5213C36.5539 39.4992 36.5854 39.4664 36.6229 39.4416C36.6999 39.3893 36.779 39.3404 36.8487 39.2754C36.9465 39.1823 37.0349 39.0758 37.1153 38.9592C37.1187 38.9538 37.1234 38.9505 37.1274 38.9451C37.4604 38.454 37.6386 37.7632 37.6379 36.9673C37.6379 35.5074 36.9498 34.2524 35.6835 34.2524C35.1985 34.2524 34.7971 34.4347 34.4836 34.7422C33.979 35.2387 33.7064 36.0648 33.7064 37.0021C33.7064 38.5344 34.442 39.729 35.6721 39.729Z" fill="#00AEEF"/>
<path id="Vector_2" d="M43.4803 13.3926V3.34998H13.4757C12.6097 3.35015 11.7793 3.69428 11.167 4.30668C10.5548 4.91907 10.2108 5.74959 10.2108 6.61556V60.3844C10.211 61.2503 10.555 62.0807 11.1672 62.6931C11.7795 63.3054 12.6098 63.6496 13.4757 63.65H53.5223C54.3883 63.6496 55.2188 63.3055 55.8312 62.6932C56.4437 62.0808 56.788 61.2504 56.7885 60.3844V16.6582H46.7459C45.8798 16.6582 45.0492 16.3141 44.4368 15.7017C43.8244 15.0893 43.4803 14.2587 43.4803 13.3926ZM21.2604 41.1896H21.247C20.6313 41.1896 20.1851 40.7199 20.1851 40.08C20.1851 39.4167 20.6313 38.9585 21.2712 38.9585C21.8983 38.9585 22.3324 39.4047 22.3445 40.08C22.3452 40.7192 21.9117 41.1896 21.2604 41.1896ZM30.8247 36.7984C30.8247 37.9649 30.5058 38.8606 30.0207 39.5159C29.8645 39.7271 29.6852 39.9202 29.486 40.0914C28.6298 40.8036 27.3152 41.1407 25.7226 41.1407C24.7692 41.1407 24.0818 41.0804 23.6356 41.0187V33.0457C24.3103 32.9244 25.1913 32.8641 26.1086 32.8641C27.6643 32.8641 28.6773 33.1174 29.4492 33.709C29.6602 33.8658 29.8525 34.0467 30.0207 34.2524C30.5265 34.8708 30.8247 35.7123 30.8247 36.7984ZM35.6118 41.1896H35.5984C33.1978 41.1896 31.7747 39.3678 31.7747 37.0516C31.7747 35.4624 32.4447 34.1385 33.5717 33.4075C34.172 33.0169 34.901 32.7925 35.7324 32.7925C38.2309 32.7925 39.593 34.6624 39.593 36.9063C39.593 39.5836 37.9883 41.1896 35.6118 41.1896ZM45.0669 39.6566C45.424 39.6566 45.7898 39.6104 46.1101 39.5387C46.297 39.4965 46.4732 39.4489 46.6112 39.3906L46.8765 40.8378L46.8759 40.8385C46.5496 40.9946 45.7777 41.1882 44.8016 41.1882C41.9909 41.1882 40.543 39.4268 40.543 37.0985C40.543 35.4262 41.2646 34.2088 42.3741 33.5027C43.1058 33.037 44.0049 32.7911 44.9831 32.7911C45.9359 32.7911 46.6595 32.9847 46.9851 33.1536L46.5992 34.6015C46.2387 34.4453 45.7175 34.3006 45.0541 34.3006C43.607 34.3006 42.4726 35.181 42.4726 37.0021C42.4733 38.6315 43.4381 39.6566 45.0669 39.6566Z" fill="#00AEEF"/>
<path id="Vector_3" d="M28.8562 36.4996C28.8489 36.4158 28.8502 36.324 28.8375 36.2456C28.6264 34.915 27.6944 34.2772 26.3008 34.2772C25.9029 34.2772 25.6255 34.3134 25.4687 34.3489V39.668C25.586 39.6955 25.7648 39.7022 25.939 39.7042L26.1086 39.7048C27.3661 39.7142 28.2981 39.1997 28.6854 38.1236C28.6994 38.0841 28.7048 38.0365 28.7175 37.9957C28.767 37.8464 28.8053 37.6937 28.8321 37.5387C28.8475 37.4409 28.8475 37.327 28.8556 37.2218C28.8656 37.1012 28.883 36.9873 28.883 36.858C28.883 36.73 28.8663 36.6175 28.8562 36.4996ZM43.4803 3.34998V13.3926C43.4803 14.2586 43.8243 15.0891 44.4365 15.7015C45.0488 16.3139 45.8793 16.658 46.7452 16.6582H56.7885L43.4803 3.34998Z" fill="#00AEEF"/>
<path id="Vector_4" opacity="0.6" d="M43.4803 3.34998V13.3926C43.4803 14.2586 43.8243 15.0891 44.4365 15.7015C45.0488 16.3139 45.8793 16.658 46.7452 16.6582H56.7885L43.4803 3.34998Z" fill="white"/>
<path id="Vector_5" d="M21.2718 38.9578C20.632 38.9578 20.1858 39.4161 20.1858 40.0794C20.1858 40.7192 20.632 41.1889 21.2477 41.1889H21.2604C21.9117 41.1889 22.3452 40.7192 22.3452 40.0794C22.3331 39.4047 21.899 38.9578 21.2718 38.9578ZM29.4492 33.7097C28.6773 33.1181 27.6643 32.8648 26.1086 32.8648C25.1913 32.8648 24.3103 32.9251 23.6356 33.0464V41.0194C24.0818 41.081 24.7692 41.1413 25.7226 41.1413C27.3152 41.1413 28.6298 40.8037 29.486 40.0921C29.6852 39.9209 29.8645 39.7278 30.0207 39.5166C30.5058 38.8613 30.8247 37.9662 30.8247 36.7991C30.8247 35.7137 30.5265 34.8715 30.0207 34.2537C29.8537 34.0492 29.6617 33.8665 29.4492 33.7097ZM28.8321 37.5388C28.805 37.6936 28.7667 37.8464 28.7175 37.9957C28.7048 38.0372 28.6994 38.0848 28.6854 38.1237C28.2981 39.1997 27.3661 39.7142 26.1086 39.7049L25.9391 39.7042C25.7655 39.7029 25.5866 39.6955 25.4687 39.6687V34.3489C25.6255 34.3127 25.9029 34.2772 26.3009 34.2772C27.6945 34.2772 28.6258 34.9144 28.8375 36.2457C28.8502 36.324 28.8489 36.4158 28.8562 36.4996C28.867 36.6182 28.883 36.7307 28.883 36.8587C28.883 36.988 28.8656 37.1019 28.8556 37.2225C28.8475 37.327 28.8482 37.4409 28.8321 37.5388ZM35.7324 32.7925C34.9016 32.7925 34.1727 33.0169 33.5717 33.4075C32.4454 34.1385 31.7761 35.4624 31.7761 37.051C31.7761 39.3672 33.1992 41.1896 35.5998 41.1896H35.6125C37.989 41.1896 39.593 39.5843 39.593 36.9063C39.593 34.6618 38.2309 32.7925 35.7324 32.7925ZM33.7057 37.0034C33.7057 36.0654 33.9784 35.24 34.4836 34.7435C34.6407 34.5859 34.8279 34.4613 35.034 34.3772C35.2401 34.2931 35.4609 34.2511 35.6835 34.2537C36.9498 34.2537 37.6379 35.5087 37.6379 36.9686C37.6386 37.7645 37.4604 38.4553 37.1274 38.9464C37.1234 38.9518 37.1187 38.9551 37.1153 38.9605C37.0349 39.0771 36.9465 39.1836 36.8487 39.2767C36.779 39.3417 36.6999 39.3906 36.6229 39.4429C36.5854 39.4677 36.5532 39.5005 36.5143 39.5226C36.2731 39.6573 35.9951 39.731 35.6842 39.731H35.6715C34.4407 39.7297 33.7057 38.5357 33.7057 37.0034ZM45.0542 34.3006C45.7168 34.3006 46.238 34.4454 46.5985 34.6015L46.9844 33.1543C46.6595 32.9854 45.9359 32.7918 44.9831 32.7918C44.0049 32.7918 43.1058 33.0377 42.3741 33.5027C41.2646 34.2089 40.543 35.4262 40.543 37.0986C40.543 39.4275 41.9909 41.1882 44.8016 41.1882C45.7778 41.1882 46.5489 40.9946 46.8759 40.8385L46.6106 39.3913C46.4479 39.4544 46.2803 39.5037 46.1094 39.5387C45.7669 39.6151 45.4172 39.6546 45.0662 39.6566C43.4368 39.6566 42.4726 38.6322 42.4726 37.0028C42.4733 35.1824 43.607 34.3006 45.0542 34.3006Z" fill="white"/>
</g>
</svg>
