<svg width="67" height="67" viewBox="0 0 67 67" fill="none" xmlns="http://www.w3.org/2000/svg">
<g id="Folder">
<path id="Vector" d="M62.3938 11.1667H31.5458C30.2896 11.1667 29.0333 10.6083 28.1958 9.77083L24.2875 5.58333C23.45 4.60625 22.1938 4.1875 20.9375 4.1875H4.60625C2.09375 4.1875 0 6.28125 0 8.79375V52.6229C0 55.1354 2.09375 57.2292 4.60625 57.2292H62.3938C64.9062 57.2292 67 55.1354 67 52.6229V15.7729C67 13.2604 64.9062 11.1667 62.3938 11.1667Z" fill="#56B3E5"/>
<path id="Vector_2" d="M59.8813 15.7729H7.11875C5.16458 15.7729 3.62917 17.3083 3.62917 19.2625V54.2979C3.62917 56.2521 5.16458 57.7875 7.11875 57.7875H60.0208C61.975 57.7875 63.5104 56.2521 63.5104 54.2979V19.2625C63.3708 17.3083 61.8354 15.7729 59.8813 15.7729Z" fill="white"/>
<path id="Vector_3" d="M62.3938 21.3563H4.60625C2.09375 21.3563 0 23.45 0 25.9625V58.2063C0 60.7188 2.09375 62.8125 4.60625 62.8125H62.3938C64.9062 62.8125 67 60.7188 67 58.2063V25.9625C67 23.45 64.9062 21.3563 62.3938 21.3563Z" fill="#98D0F1"/>
</g>
</svg>
