<svg width="26" height="22" viewBox="0 0 26 22" fill="none" xmlns="http://www.w3.org/2000/svg">
<path d="M17.4557 15.0105L18.5202 18.6705L21.3056 21.6632C21.6886 21.4414 22.0064 21.1229 22.227 20.7398L24.8188 16.2655C25.0398 15.8825 25.1559 15.4482 25.1554 15.0063L21.1793 14.2382L17.4557 15.0105Z" fill="#EA4335"/>
<path d="M16.7732 0.52609C16.3893 0.305619 15.954 0.189818 15.511 0.190309H10.3358C9.89306 0.191374 9.45813 0.30707 9.07361 0.52609L10.1886 4.2743L12.9108 7.15787L15.6541 4.21974L16.7732 0.52609Z" fill="#188038"/>
<path d="M8.39305 15.0109L4.42123 14.1042L0.689211 15.0109C0.688718 15.4528 0.804805 15.8871 1.02581 16.2701L3.6176 20.7444C3.83823 21.1275 4.15601 21.446 4.53903 21.6678L7.28229 18.8472L8.39305 15.0109Z" fill="#1967D2"/>
<path d="M21.2592 7.59902L17.6997 1.44574C17.4791 1.06263 17.1613 0.744179 16.7783 0.522339L12.9243 7.17929L17.4557 15.0073H25.1553C25.1558 14.5654 25.0397 14.1311 24.8187 13.7481L21.2592 7.59902Z" fill="#FBBC04"/>
<path d="M17.4572 15.0115H8.39431L4.54449 21.6642C4.92842 21.8847 5.36374 22.0005 5.80673 22H20.0448C20.4877 22.0005 20.9231 21.8847 21.307 21.6642L17.4572 15.0115Z" fill="#4285F4"/>
<path d="M12.9238 7.17876L9.07393 0.526001C8.69144 0.746682 8.37371 1.06365 8.1525 1.44522L1.02928 13.756C0.808278 14.139 0.692197 14.5732 0.69269 15.0152H8.39232L12.9238 7.17876Z" fill="#34A853"/>
</svg>
