<svg width="32" height="19" viewBox="0 0 32 19" fill="none" xmlns="http://www.w3.org/2000/svg">
<path d="M28.4148 12.2962C28.4217 12.1931 28.4285 12.0832 28.4285 11.9802C28.4285 9.53491 26.4422 7.54983 23.9953 7.54983C23.1018 7.54983 22.2633 7.81771 21.5691 8.27105C20.7237 6.62941 19.0123 5.50293 17.0396 5.50293C14.2285 5.50293 11.9535 7.7765 11.9535 10.5858C11.9535 10.6889 11.9603 10.7919 11.9672 10.8949C11.8572 10.8881 11.7473 10.8812 11.6304 10.8812C9.38289 10.8812 7.56836 12.7014 7.56836 14.9406C7.56836 17.173 9.37601 18.9864 11.6098 19.0001H11.6373H26.559H29.1983C29.2877 18.9658 29.377 18.9245 29.4595 18.8833C30.6005 18.3064 31.384 17.1249 31.384 15.7512C31.3772 14.0065 30.0919 12.5572 28.4148 12.2962Z" fill="#0069B3"/>
<path d="M11.0828 10.0156C11.3715 6.98643 13.9352 4.60296 17.0418 4.60296C18.987 4.60296 20.774 5.53024 21.8943 7.07572C22.5542 6.7941 23.269 6.64299 23.9975 6.64299C24.0456 6.64299 24.0938 6.64299 24.135 6.64299C23.7982 3.3391 21.0077 0.763306 17.6123 0.763306C15.0417 0.763306 12.8217 2.2401 11.7495 4.39689C10.9934 3.8886 10.0793 3.58638 9.1033 3.58638C6.4846 3.58638 4.36078 5.70883 4.36078 8.32584C4.36078 8.67615 4.40202 9.01959 4.47075 9.34929C2.29195 9.50727 0.566772 11.3206 0.566772 13.5461C0.566772 15.8678 2.45003 17.7498 4.77318 17.7498H7.52933C6.97947 16.953 6.65643 15.9845 6.65643 14.9474C6.66331 12.3922 8.60155 10.2834 11.0828 10.0156Z" fill="#0069B3"/>
</svg>
