<svg width="32" height="33" viewBox="0 0 32 33" fill="none" xmlns="http://www.w3.org/2000/svg">
<g clip-path="url(#clip0_54_152)">
<path d="M7.21044 7.13517C9.03996 7.13517 10.8695 7.14985 12.6985 7.12606C13.2389 7.11949 13.6811 7.28798 14.102 7.59511C14.5447 7.91743 14.992 8.23518 15.4524 8.53119C16.0484 8.91472 16.7087 9.07613 17.4211 9.07411C20.22 9.06652 23.0189 9.07411 25.8199 9.07411C27.3544 9.07411 28.889 9.09181 30.4241 9.06702C31.2994 9.05336 32.0907 9.7076 31.9966 10.6963C31.9045 11.6577 31.8347 12.6266 31.7567 13.592C31.6814 14.5236 31.61 15.4561 31.5336 16.3876C31.4415 17.5124 31.3444 18.6367 31.2523 19.761C31.1759 20.693 31.1036 21.6251 31.0292 22.5571C30.9578 23.4552 30.9002 24.3548 30.8106 25.2515C30.7281 26.0808 30.1296 26.5928 29.2882 26.5938H26.0501C25.3144 26.5938 24.9092 26.2012 24.8945 25.4559C24.8672 24.1089 24.5616 22.8247 23.9266 21.6433C22.4649 18.9206 20.2069 17.2878 17.1307 16.8759C14.5923 16.5359 12.3059 17.2108 10.3398 18.8396C8.37362 20.4684 7.31365 22.5723 7.1391 25.1209C7.12594 25.3142 7.11481 25.5075 7.0966 25.7003C7.05309 26.1637 6.63719 26.5832 6.17323 26.5878C5.00954 26.5999 3.84585 26.607 2.68216 26.5878C1.98243 26.5751 1.42183 25.9679 1.36213 25.2216L0.846562 18.8477C0.710967 17.1683 0.578407 15.4895 0.4418 13.8106C0.300471 12.1071 0.156274 10.4037 0.00921036 8.70018C-0.00921989 8.50025 0.0142399 8.29868 0.0780919 8.10833C0.141944 7.91798 0.244785 7.74304 0.380048 7.59467C0.515311 7.44631 0.680024 7.32778 0.86367 7.24666C1.04732 7.16553 1.24586 7.1236 1.44662 7.12354H7.21449L7.21044 7.13517Z" fill="#C2D3C7"/>
<path d="M7.21044 7.13517C9.03996 7.13517 10.8695 7.14985 12.6985 7.12606C13.2389 7.11949 13.6811 7.28798 14.102 7.59511C14.5447 7.91743 14.992 8.23518 15.4524 8.53119C16.0484 8.91472 16.7087 9.07613 17.4211 9.07411C20.22 9.06652 23.0189 9.07411 25.8199 9.07411C27.3544 9.07411 28.889 9.09181 30.4241 9.06702C31.2994 9.05336 32.0907 9.7076 31.9966 10.6963C31.9045 11.6577 31.8347 12.6266 31.7567 13.592C31.6814 14.5236 31.61 15.4561 31.5336 16.3876C31.4415 17.5124 31.3444 18.6367 31.2523 19.761C31.1759 20.693 31.1036 21.6251 31.0292 22.5571C30.9578 23.4552 30.9002 24.3548 30.8106 25.2515C30.7281 26.0808 30.1296 26.5928 29.2882 26.5938H26.0501C25.3144 26.5938 24.9092 26.2012 24.8945 25.4559C24.8672 24.1089 24.5616 22.8247 23.9266 21.6433C22.4649 18.9206 20.2069 17.2878 17.1307 16.8759C14.5923 16.5359 12.3059 17.2108 10.3398 18.8396C8.37362 20.4684 7.31365 22.5723 7.1391 25.1209C7.12594 25.3142 7.11481 25.5075 7.0966 25.7003C7.05309 26.1637 6.63719 26.5832 6.17323 26.5878C5.00954 26.5999 3.84585 26.607 2.68216 26.5878C1.98243 26.5751 1.42183 25.9679 1.36213 25.2216L0.846562 18.8477C0.710967 17.1683 0.578407 15.4895 0.4418 13.8106C0.300471 12.1071 0.156274 10.4037 0.00921036 8.70018C-0.00921989 8.50025 0.0142399 8.29868 0.0780919 8.10833C0.141944 7.91798 0.244785 7.74304 0.380048 7.59467C0.515311 7.44631 0.680024 7.32778 0.86367 7.24666C1.04732 7.16553 1.24586 7.1236 1.44662 7.12354H7.21449L7.21044 7.13517Z" fill="url(#paint0_linear_54_152)"/>
<path d="M7.21044 7.13517C9.03996 7.13517 10.8695 7.14985 12.6985 7.12606C13.2389 7.11949 13.6811 7.28798 14.102 7.59511C14.5447 7.91743 14.992 8.23518 15.4524 8.53119C16.0484 8.91472 16.7087 9.07613 17.4211 9.07411C20.22 9.06652 23.0189 9.07411 25.8199 9.07411C27.3544 9.07411 28.889 9.09181 30.4241 9.06702C31.2994 9.05336 32.0907 9.7076 31.9966 10.6963C31.9045 11.6577 31.8347 12.6266 31.7567 13.592C31.6814 14.5236 31.61 15.4561 31.5336 16.3876C31.4415 17.5124 31.3444 18.6367 31.2523 19.761C31.1759 20.693 31.1036 21.6251 31.0292 22.5571C30.9578 23.4552 30.9002 24.3548 30.8106 25.2515C30.7281 26.0808 30.1296 26.5928 29.2882 26.5938H26.0501C25.3144 26.5938 24.9092 26.2012 24.8945 25.4559C24.8672 24.1089 24.5616 22.8247 23.9266 21.6433C22.4649 18.9206 20.2069 17.2878 17.1307 16.8759C14.5923 16.5359 12.3059 17.2108 10.3398 18.8396C8.37362 20.4684 7.31365 22.5723 7.1391 25.1209C7.12594 25.3142 7.11481 25.5075 7.0966 25.7003C7.05309 26.1637 6.63719 26.5832 6.17323 26.5878C5.00954 26.5999 3.84585 26.607 2.68216 26.5878C1.98243 26.5751 1.42183 25.9679 1.36213 25.2216L0.846562 18.8477C0.710967 17.1683 0.578407 15.4895 0.4418 13.8106C0.300471 12.1071 0.156274 10.4037 0.00921036 8.70018C-0.00921989 8.50025 0.0142399 8.29868 0.0780919 8.10833C0.141944 7.91798 0.244785 7.74304 0.380048 7.59467C0.515311 7.44631 0.680024 7.32778 0.86367 7.24666C1.04732 7.16553 1.24586 7.1236 1.44662 7.12354H7.21449L7.21044 7.13517Z" fill="#E17351"/>
<path d="M23.1833 25.663C23.1833 29.6445 19.9958 32.853 16.062 32.8672C12.0872 32.8813 8.83243 29.7503 8.82181 25.7277C8.81068 21.613 12.0128 18.5068 15.9967 18.4992C20.1698 18.4916 23.1888 21.8701 23.1833 25.663ZM15.0223 29.2124C15.1107 29.2198 15.1996 29.2064 15.2819 29.1733C15.3642 29.1402 15.4377 29.0883 15.4963 29.0217C15.8647 28.6397 16.2381 28.2627 16.6069 27.8802C17.8303 26.6125 19.053 25.3445 20.2751 24.0762C20.4805 23.8622 20.4774 23.722 20.268 23.513C19.9998 23.2454 19.7231 22.9853 19.4473 22.7252C19.1088 22.4054 19.0223 22.4044 18.7031 22.7358C17.5338 23.9502 16.3625 25.1646 15.2034 26.3865C15.0248 26.5747 14.9201 26.5707 14.7389 26.3971C14.1606 25.8441 13.5661 25.3078 12.9772 24.7658C12.7748 24.5786 12.6352 24.5675 12.4535 24.7557C12.1373 25.0831 11.8348 25.4231 11.5261 25.7571C11.3743 25.923 11.3673 26.0849 11.5362 26.2418C11.7052 26.3987 11.8712 26.5499 12.0381 26.7043C12.8814 27.4801 13.7247 28.256 14.5679 29.0318C14.6964 29.1532 14.8411 29.2251 15.0223 29.2124Z" fill="#3F6972"/>
<path d="M23.6022 7.71463C21.5617 7.71463 19.5212 7.70855 17.4802 7.71969C17.057 7.72653 16.6433 7.59349 16.3034 7.34121C15.8526 7.01586 15.3926 6.70063 14.9373 6.38591C14.3637 5.99037 13.683 5.77958 12.9863 5.78176C9.54586 5.74938 6.10538 5.74483 2.6649 5.74938C2.47112 5.74938 2.27734 5.75849 2.08407 5.75394C1.84323 5.74736 1.70662 5.6239 1.70308 5.37596C1.69246 4.6438 1.67981 3.91114 1.67627 3.17847C1.67627 2.85009 1.65704 2.52069 1.69904 2.19332C1.80023 1.40044 2.33907 0.87776 3.1405 0.87776C5.55187 0.865616 7.96357 0.865616 10.3756 0.87776C11.1664 0.880796 11.7822 1.28255 12.3372 1.80675C12.6681 2.11877 13.0071 2.42236 13.3542 2.71752C13.8217 3.11573 14.3661 3.30295 14.9833 3.30295C19.6121 3.30058 24.2411 3.29957 28.8702 3.29991C29.5538 3.29991 30.0567 3.57314 30.3501 4.19905C30.4316 4.38532 30.4708 4.58732 30.465 4.79054C30.465 5.59152 30.465 6.39249 30.465 7.19346C30.465 7.59319 30.3355 7.71716 29.9272 7.71716C27.8187 7.71682 25.7104 7.71598 23.6022 7.71463Z" fill="#3F6972"/>
</g>
<defs>
<linearGradient id="paint0_linear_54_152" x1="-2.52998" y1="13.9432" x2="49.7853" y2="7.59802" gradientUnits="userSpaceOnUse">
<stop stop-color="#A9E5BB"/>
<stop offset="1" stop-color="#3F6972"/>
</linearGradient>
<clipPath id="clip0_54_152">
<rect width="32.002" height="32" fill="white" transform="translate(0 0.867676)"/>
</clipPath>
</defs>
</svg>
