<svg width="31" height="32" viewBox="0 0 31 32" fill="none" xmlns="http://www.w3.org/2000/svg">
<path d="M11.9133 0.921143C10.2536 0.921143 8.89751 2.27724 8.89751 3.93693C8.89751 5.59663 10.2536 6.95272 11.9133 6.95272H14.9291V3.93693C14.9291 2.27724 13.5932 0.921143 11.9133 0.921143ZM11.9133 8.95651H3.89818C2.23848 8.95651 0.882385 10.3126 0.882385 11.9723C0.882385 13.632 2.23848 14.9881 3.89818 14.9881H11.9335C13.5932 14.9881 14.9493 13.632 14.9493 11.9723C14.9291 10.3126 13.5932 8.95651 11.9133 8.95651Z" fill="#36C5F0"/>
<path d="M31 11.9722C31 10.3125 29.6439 8.95637 27.9842 8.95637C26.3245 8.95637 24.9684 10.3125 24.9684 11.9722V14.9879H27.9842C29.6439 15.0082 31 13.6521 31 11.9722ZM22.9646 11.9722V3.91655C22.9646 2.25685 21.6085 0.900757 19.9488 0.900757C18.2891 0.900757 16.933 2.25685 16.933 3.91655V11.9722C16.933 13.6319 18.2891 14.9879 19.9488 14.9879C21.6288 15.0082 22.9646 13.6521 22.9646 11.9722Z" fill="#2EB67D"/>
<path d="M19.9488 31.0993C21.6085 31.0993 22.9646 29.7432 22.9646 28.0835C22.9646 26.4238 21.6085 25.0677 19.9488 25.0677H16.933V28.0835C16.933 29.7432 18.2891 31.0993 19.9488 31.0993ZM19.9488 23.0437H27.9842C29.6439 23.0437 31 21.6876 31 20.0279C31 18.3682 29.6439 17.0121 27.9842 17.0121H19.9488C18.2891 17.0121 16.933 18.3682 16.933 20.0279C16.933 21.6876 18.2891 23.0437 19.9488 23.0437Z" fill="#ECB22E"/>
<path d="M0.882385 20.0279C0.882385 21.6876 2.23848 23.0437 3.89818 23.0437C5.55787 23.0437 6.91397 21.6876 6.91397 20.0279V17.0121H3.89818C2.21824 17.0121 0.882385 18.3682 0.882385 20.0279ZM8.91775 20.0279V28.0835C8.91775 29.7432 10.2738 31.0993 11.9335 31.0993C13.5932 31.0993 14.9493 29.7432 14.9493 28.0835V20.0279C14.9493 18.3682 13.5932 17.0121 11.9335 17.0121C10.2536 17.0121 8.91775 18.3682 8.91775 20.0279Z" fill="#E01E5A"/>
</svg>
